<?xml version="1.0" encoding="utf-8"?>
<!-- Generator: Adobe Illustrator 21.1.0, SVG Export Plug-In . SVG Version: 6.00 Build 0)  -->
<svg version="1.1" id="Calque_1" xmlns="http://www.w3.org/2000/svg" xmlns:xlink="http://www.w3.org/1999/xlink" x="0px" y="0px"
	 width="72px" height="72px" viewBox="0 0 72 72" enable-background="new 0 0 72 72" xml:space="preserve">
<g>
	<polygon points="36,2.2 36,6.7 0,4.5 	"/>
	<polygon points="36,29.2 36,33.7 0,31.5 	"/>
	<polygon points="36,20.2 36,24.7 0,22.5 	"/>
	<polygon points="36,47.2 36,51.7 0,49.5 	"/>
	<polygon points="36,65.2 36,69.7 0,67.5 	"/>
	<polygon points="36,11.2 36,15.7 0,13.5 	"/>
	<polygon points="36,38.2 36,42.7 0,40.5 	"/>
	<polygon points="36,56.2 36,60.7 0,58.5 	"/>
	<polygon points="72,63 36,65.2 36,69.7 72,72 	"/>
	<polygon points="72,36 36,38.2 36,42.7 72,45 	"/>
	<polygon points="72,54 36,56.2 36,60.7 72,63 	"/>
	<polygon points="72,27 36,29.2 36,33.7 72,36 	"/>
	<polygon points="72,9 36,11.2 36,15.7 72,18 	"/>
	<polygon points="72,0 36,2.2 36,6.7 72,9 	"/>
	<polygon points="72,45 36,47.2 36,51.7 72,54 	"/>
	<polygon points="72,18 36,20.2 36,24.7 72,27 	"/>
</g>
</svg>
