<?xml version="1.0" encoding="utf-8"?>
<!-- Generator: Adobe Illustrator 21.1.0, SVG Export Plug-In . SVG Version: 6.00 Build 0)  -->
<svg version="1.1" id="Calque_1" xmlns="http://www.w3.org/2000/svg" xmlns:xlink="http://www.w3.org/1999/xlink" x="0px" y="0px"
	 width="72px" height="72px" viewBox="0 0 72 72" enable-background="new 0 0 72 72" xml:space="preserve">
<polygon points="15.6,0 0,18 15.6,36 18,36 2.4,18 17.9,0 "/>
<polygon points="15.6,36 0,54 15.6,72 18,72 2.4,54 17.9,36 "/>
<polygon points="20.4,0 4.8,18 20.4,36 24,36 8.4,18 23.9,0 "/>
<polygon points="20.4,36 4.8,54 20.4,72 24,72 8.4,54 23.9,36 "/>
<polygon points="26.4,0 10.8,18 26.4,36 31.2,36 15.6,18 31.2,0 "/>
<polygon points="26.4,36 10.8,54 26.4,72 31.2,72 15.6,54 31.2,36 "/>
<polygon points="33.6,0 18,18 33.6,36 39.6,36 24,18 39.6,0 "/>
<polygon points="33.6,36 18,54 33.6,72 39.6,72 24,54 39.6,36 "/>
<polygon points="42,0 26.4,18 42,36 49.1,36 33.6,18 49.1,0 "/>
<polygon points="42,36 26.4,54 42,72 49.1,72 33.6,54 49.1,36 "/>
<polygon points="51.5,0 36,18 51.5,36 59.9,36 44.3,18 59.9,0 "/>
<polygon points="51.5,36 36,54 51.5,72 59.9,72 44.3,54 59.9,36 "/>
<polygon points="62.3,0 46.7,18 62.3,36 71.9,36 56,18 71.9,0 "/>
<polygon points="62.3,36 46.7,54 62.3,72 71.9,72 56,54 71.9,36 "/>
</svg>
