<?xml version="1.0" encoding="utf-8"?>
<!-- Generator: Adobe Illustrator 21.1.0, SVG Export Plug-In . SVG Version: 6.00 Build 0)  -->
<svg version="1.1" id="Calque_1" xmlns="http://www.w3.org/2000/svg" xmlns:xlink="http://www.w3.org/1999/xlink" x="0px" y="0px"
	 width="72px" height="72px" viewBox="0 0 72 72" enable-background="new 0 0 72 72" xml:space="preserve">
<path d="M62.2,18.5c-4.7,0-8.6-3.8-8.6-8.6c0-4.7,3.8-8.6,8.6-8.6c4.7,0,8.6,3.8,8.6,8.6C70.7,14.6,66.9,18.5,62.2,18.5 M62.2,44.6
	c-4.7,0-8.6-3.8-8.6-8.6c0-4.7,3.8-8.6,8.6-8.6c4.7,0,8.6,3.8,8.6,8.6C70.7,40.7,66.9,44.6,62.2,44.6 M36,18.5
	c-4.7,0-8.6-3.8-8.6-8.6c0-4.7,3.8-8.6,8.6-8.6s8.6,3.8,8.6,8.6C44.6,14.6,40.7,18.5,36,18.5 M36,44.6c-4.7,0-8.6-3.8-8.6-8.6
	c0-4.7,3.8-8.6,8.6-8.6s8.6,3.8,8.6,8.6C44.6,40.7,40.7,44.6,36,44.6 M36,70.7c-4.7,0-8.6-3.8-8.6-8.6c0-4.7,3.8-8.6,8.6-8.6
	c4.7,0,8.6,3.8,8.6,8.6C44.6,66.9,40.7,70.7,36,70.7 M9.9,44.6c-4.7,0-8.6-3.8-8.6-8.6c0-4.7,3.8-8.6,8.6-8.6s8.6,3.8,8.6,8.6
	C18.4,40.7,14.6,44.6,9.9,44.6 M9.8,70.7c-4.7,0-8.6-3.8-8.6-8.6c0-4.7,3.8-8.6,8.6-8.6c4.7,0,8.6,3.8,8.6,8.6
	C18.4,66.9,14.6,70.7,9.8,70.7 M0,72h72V0H0V72z"/>
</svg>
