<?xml version="1.0" encoding="utf-8"?>
<!-- Generator: Adobe Illustrator 21.1.0, SVG Export Plug-In . SVG Version: 6.00 Build 0)  -->
<svg version="1.1" id="Calque_1" xmlns="http://www.w3.org/2000/svg" xmlns:xlink="http://www.w3.org/1999/xlink" x="0px" y="0px"
	 width="72px" height="72px" viewBox="0 0 72 72" enable-background="new 0 0 72 72" xml:space="preserve">
<g>
	<path d="M38.2,68.4c-0.8,0-1.5-0.3-2.2-0.9c0.7,0.7,1,1.5,1,2.2c0,0.8-0.3,1.5-1,2.2c0.8-0.6,1.5-0.9,2.2-0.9
		c0.8,0,1.5,0.3,2.2,0.9c-0.7-0.8-1-1.5-1-2.2c0-0.8,0.3-1.5,1-2.2C39.7,68.1,39,68.4,38.2,68.4"/>
	<path d="M47.2,68.4c-0.8,0-1.5-0.3-2.2-0.9c0.7,0.7,1,1.5,1,2.2c0,0.8-0.3,1.5-1,2.2c0.7-0.6,1.5-0.9,2.2-0.9
		c0.8,0,1.5,0.3,2.2,0.9c-0.7-0.8-1-1.5-1-2.2c0-0.8,0.3-1.5,1-2.2C48.7,68.1,48,68.4,47.2,68.4"/>
	<path d="M56.2,68.4c-0.8,0-1.5-0.3-2.2-0.9c0.7,0.7,1,1.5,1,2.2c0,0.8-0.3,1.5-1,2.2c0.7-0.6,1.5-0.9,2.2-0.9
		c0.8,0,1.5,0.3,2.2,0.9c-0.7-0.8-1-1.5-1-2.2c0-0.8,0.3-1.5,1-2.2C57.7,68.1,57,68.4,56.2,68.4"/>
	<path d="M65.3,68.4c-0.8,0-1.5-0.3-2.3-0.9c0.7,0.7,1,1.5,1,2.2c0,0.8-0.3,1.5-1,2.2c0.8-0.6,1.5-0.9,2.3-0.9
		c0.8,0,1.5,0.3,2.2,0.9c-0.7-0.8-1-1.5-1-2.2c0-0.8,0.3-1.5,1-2.2C66.8,68.1,66,68.4,65.3,68.4"/>
	<path d="M38.2,59.4c-0.8,0-1.5-0.3-2.2-0.9c0.7,0.7,1,1.5,1,2.2c0,0.8-0.3,1.5-1,2.3c0.8-0.6,1.5-0.9,2.2-0.9
		c0.8,0,1.5,0.3,2.2,0.9c-0.7-0.8-1-1.5-1-2.3c0-0.8,0.3-1.5,1-2.2C39.7,59.1,39,59.4,38.2,59.4"/>
	<path d="M47.2,59.4c-0.8,0-1.5-0.3-2.2-0.9c0.7,0.7,1,1.5,1,2.2c0,0.8-0.3,1.5-1,2.3c0.7-0.6,1.5-0.9,2.2-0.9
		c0.8,0,1.5,0.3,2.2,0.9c-0.7-0.8-1-1.5-1-2.3c0-0.8,0.3-1.5,1-2.2C48.7,59.1,48,59.4,47.2,59.4"/>
	<path d="M56.2,59.4c-0.8,0-1.5-0.3-2.2-0.9c0.7,0.7,1,1.5,1,2.2c0,0.8-0.3,1.5-1,2.3c0.7-0.6,1.5-0.9,2.2-0.9
		c0.8,0,1.5,0.3,2.2,0.9c-0.7-0.8-1-1.5-1-2.3c0-0.8,0.3-1.5,1-2.2C57.7,59.1,57,59.4,56.2,59.4"/>
	<path d="M65.3,59.4c-0.8,0-1.5-0.3-2.3-0.9c0.7,0.7,1,1.5,1,2.2c0,0.8-0.3,1.5-1,2.3c0.8-0.6,1.5-0.9,2.3-0.9
		c0.8,0,1.5,0.3,2.2,0.9c-0.7-0.8-1-1.5-1-2.3c0-0.8,0.3-1.5,1-2.2C66.8,59.1,66,59.4,65.3,59.4"/>
	<path d="M38.2,50.4c-0.8,0-1.5-0.3-2.2-0.9c0.7,0.7,1,1.5,1,2.2c0,0.8-0.3,1.5-1,2.3c0.8-0.6,1.5-0.9,2.2-0.9
		c0.8,0,1.5,0.3,2.2,0.9c-0.7-0.8-1-1.5-1-2.3c0-0.8,0.3-1.5,1-2.2C39.7,50.1,39,50.4,38.2,50.4"/>
	<path d="M47.2,50.4c-0.8,0-1.5-0.3-2.2-0.9c0.7,0.7,1,1.5,1,2.2c0,0.8-0.3,1.5-1,2.3c0.7-0.6,1.5-0.9,2.2-0.9
		c0.8,0,1.5,0.3,2.2,0.9c-0.7-0.8-1-1.5-1-2.3c0-0.8,0.3-1.5,1-2.2C48.7,50.1,48,50.4,47.2,50.4"/>
	<path d="M56.2,50.4c-0.8,0-1.5-0.3-2.2-0.9c0.7,0.7,1,1.5,1,2.2c0,0.8-0.3,1.5-1,2.3c0.7-0.6,1.5-0.9,2.2-0.9
		c0.8,0,1.5,0.3,2.2,0.9c-0.7-0.8-1-1.5-1-2.3c0-0.8,0.3-1.5,1-2.2C57.7,50.1,57,50.4,56.2,50.4"/>
	<path d="M65.3,50.4c-0.8,0-1.5-0.3-2.3-0.9c0.7,0.7,1,1.5,1,2.2c0,0.8-0.3,1.5-1,2.3c0.8-0.6,1.5-0.9,2.3-0.9
		c0.8,0,1.5,0.3,2.2,0.9c-0.7-0.8-1-1.5-1-2.3c0-0.8,0.3-1.5,1-2.2C66.8,50.1,66,50.4,65.3,50.4"/>
	<path d="M38.2,41.4c-0.8,0-1.5-0.3-2.2-0.9c0.7,0.8,1,1.5,1,2.2c0,0.8-0.3,1.5-1,2.3c0.8-0.6,1.5-0.9,2.2-0.9
		c0.8,0,1.5,0.3,2.2,0.9c-0.7-0.7-1-1.5-1-2.3c0-0.8,0.3-1.5,1-2.2C39.7,41.1,39,41.4,38.2,41.4"/>
	<path d="M47.2,41.4c-0.8,0-1.5-0.3-2.2-0.9c0.7,0.8,1,1.5,1,2.2c0,0.8-0.3,1.5-1,2.3c0.7-0.6,1.5-0.9,2.2-0.9
		c0.8,0,1.5,0.3,2.2,0.9c-0.7-0.7-1-1.5-1-2.3c0-0.8,0.3-1.5,1-2.2C48.7,41.1,48,41.4,47.2,41.4"/>
	<path d="M56.2,41.4c-0.8,0-1.5-0.3-2.2-0.9c0.7,0.8,1,1.5,1,2.2c0,0.8-0.3,1.5-1,2.3c0.7-0.6,1.5-0.9,2.2-0.9
		c0.8,0,1.5,0.3,2.2,0.9c-0.7-0.7-1-1.5-1-2.3c0-0.8,0.3-1.5,1-2.2C57.7,41.1,57,41.4,56.2,41.4"/>
	<path d="M65.3,41.4c-0.8,0-1.5-0.3-2.3-0.9c0.7,0.8,1,1.5,1,2.2c0,0.8-0.3,1.5-1,2.3c0.8-0.6,1.5-0.9,2.3-0.9
		c0.8,0,1.5,0.3,2.2,0.9c-0.7-0.7-1-1.5-1-2.3c0-0.8,0.3-1.5,1-2.2C66.8,41.1,66,41.4,65.3,41.4"/>
	<path d="M42.7,63.9c-0.8,0-1.5-0.3-2.2-0.9c0.7,0.7,1,1.5,1,2.2c0,0.8-0.3,1.5-1,2.3c0.8-0.6,1.5-0.9,2.2-0.9
		c0.8,0,1.5,0.3,2.3,0.9c-0.7-0.8-1-1.5-1-2.3c0-0.8,0.3-1.5,1-2.2C44.2,63.6,43.5,63.9,42.7,63.9"/>
	<path d="M51.7,63.9c-0.8,0-1.5-0.3-2.2-0.9c0.7,0.7,1,1.5,1,2.2c0,0.8-0.3,1.5-1,2.3c0.7-0.6,1.5-0.9,2.2-0.9
		c0.8,0,1.5,0.3,2.3,0.9c-0.7-0.8-1-1.5-1-2.3c0-0.8,0.3-1.5,1-2.2C53.2,63.6,52.5,63.9,51.7,63.9"/>
	<path d="M60.7,63.9c-0.8,0-1.5-0.3-2.2-0.9c0.7,0.7,1,1.5,1,2.2c0,0.8-0.3,1.5-1,2.3c0.8-0.6,1.5-0.9,2.2-0.9
		c0.8,0,1.5,0.3,2.2,0.9c-0.7-0.8-1-1.5-1-2.3c0-0.8,0.3-1.5,1-2.2C62.2,63.6,61.5,63.9,60.7,63.9"/>
	<path d="M71,65.3c0-0.8,0.3-1.5,1-2.2c-0.8,0.6-1.5,0.9-2.3,0.9c-0.8,0-1.5-0.3-2.2-0.9c0.7,0.7,1,1.5,1,2.2c0,0.8-0.3,1.5-1,2.3
		c0.8-0.6,1.5-0.9,2.2-0.9c0.8,0,1.5,0.3,2.3,0.9C71.3,66.8,71,66,71,65.3"/>
	<path d="M42.7,54.9c-0.8,0-1.5-0.3-2.2-0.9c0.7,0.7,1,1.5,1,2.2c0,0.8-0.3,1.5-1,2.3c0.8-0.6,1.5-0.9,2.2-0.9
		c0.8,0,1.5,0.3,2.3,0.9c-0.7-0.8-1-1.5-1-2.3c0-0.8,0.3-1.5,1-2.2C44.2,54.6,43.5,54.9,42.7,54.9"/>
	<path d="M51.7,54.9c-0.8,0-1.5-0.3-2.2-0.9c0.7,0.7,1,1.5,1,2.2c0,0.8-0.3,1.5-1,2.3c0.7-0.6,1.5-0.9,2.2-0.9
		c0.8,0,1.5,0.3,2.3,0.9c-0.7-0.8-1-1.5-1-2.3c0-0.8,0.3-1.5,1-2.2C53.2,54.6,52.5,54.9,51.7,54.9"/>
	<path d="M60.7,54.9c-0.8,0-1.5-0.3-2.2-0.9c0.7,0.7,1,1.5,1,2.2c0,0.8-0.3,1.5-1,2.3c0.8-0.6,1.5-0.9,2.2-0.9
		c0.8,0,1.5,0.3,2.2,0.9c-0.7-0.8-1-1.5-1-2.3c0-0.8,0.3-1.5,1-2.2C62.2,54.6,61.5,54.9,60.7,54.9"/>
	<path d="M69.8,57.6c0.8,0,1.5,0.3,2.2,0.9c-0.7-0.8-1-1.5-1-2.3c0-0.8,0.3-1.5,1-2.2c-0.7,0.6-1.5,0.9-2.2,0.9
		c-0.8,0-1.5-0.3-2.3-0.9c0.7,0.7,1,1.5,1,2.2c0,0.8-0.3,1.5-1,2.3C68.3,57.9,69,57.6,69.8,57.6"/>
	<path d="M42.7,45.9c-0.8,0-1.5-0.3-2.2-0.9c0.7,0.7,1,1.5,1,2.3c0,0.8-0.3,1.5-1,2.2c0.8-0.6,1.5-0.9,2.2-0.9
		c0.8,0,1.5,0.3,2.3,0.9c-0.7-0.8-1-1.5-1-2.2c0-0.8,0.3-1.5,1-2.3C44.2,45.6,43.5,45.9,42.7,45.9"/>
	<path d="M51.7,45.9c-0.8,0-1.5-0.3-2.2-0.9c0.7,0.7,1,1.5,1,2.3c0,0.8-0.3,1.5-1,2.2c0.7-0.6,1.5-0.9,2.2-0.9
		c0.8,0,1.5,0.3,2.3,0.9c-0.7-0.8-1-1.5-1-2.2c0-0.8,0.3-1.5,1-2.3C53.2,45.6,52.5,45.9,51.7,45.9"/>
	<path d="M60.7,45.9c-0.8,0-1.5-0.3-2.2-0.9c0.7,0.7,1,1.5,1,2.3c0,0.8-0.3,1.5-1,2.2c0.8-0.6,1.5-0.9,2.2-0.9
		c0.8,0,1.5,0.3,2.2,0.9c-0.7-0.8-1-1.5-1-2.2c0-0.8,0.3-1.5,1-2.3C62.2,45.6,61.5,45.9,60.7,45.9"/>
	<path d="M69.8,48.6c0.8,0,1.5,0.3,2.2,0.9c-0.7-0.8-1-1.5-1-2.3c0-0.8,0.3-1.5,1-2.2c-0.7,0.6-1.5,0.9-2.2,0.9
		c-0.8,0-1.5-0.3-2.3-0.9c0.7,0.7,1,1.5,1,2.2c0,0.8-0.3,1.5-1,2.3C68.3,48.9,69,48.6,69.8,48.6"/>
	<path d="M42.7,36.9c-0.8,0-1.5-0.3-2.2-0.9c0.7,0.7,1,1.5,1,2.3c0,0.8-0.3,1.5-1,2.2c0.8-0.6,1.5-0.9,2.2-0.9
		c0.8,0,1.5,0.3,2.3,0.9c-0.7-0.8-1-1.5-1-2.2c0-0.8,0.3-1.5,1-2.3C44.2,36.6,43.5,36.9,42.7,36.9"/>
	<path d="M51.7,36.9c-0.8,0-1.5-0.3-2.2-0.9c0.7,0.7,1,1.5,1,2.3c0,0.8-0.3,1.5-1,2.2c0.7-0.6,1.5-0.9,2.2-0.9
		c0.8,0,1.5,0.3,2.3,0.9c-0.7-0.8-1-1.5-1-2.2c0-0.8,0.3-1.5,1-2.3C53.2,36.6,52.5,36.9,51.7,36.9"/>
	<path d="M60.7,36.9c-0.8,0-1.5-0.3-2.2-0.9c0.7,0.7,1,1.5,1,2.3c0,0.8-0.3,1.5-1,2.2c0.8-0.6,1.5-0.9,2.2-0.9
		c0.8,0,1.5,0.3,2.2,0.9c-0.7-0.8-1-1.5-1-2.2c0-0.8,0.3-1.5,1-2.3C62.2,36.6,61.5,36.9,60.7,36.9"/>
	<path d="M69.8,39.6c0.8,0,1.5,0.3,2.2,0.9c-0.7-0.8-1-1.5-1-2.2c0-0.8,0.3-1.5,1-2.3c-0.7,0.6-1.5,0.9-2.2,0.9
		c-0.8,0-1.5-0.3-2.3-0.9c0.7,0.7,1,1.5,1,2.3c0,0.8-0.3,1.5-1,2.2C68.3,39.9,69,39.6,69.8,39.6"/>
	<path d="M38.2,32.4c-0.8,0-1.5-0.3-2.2-0.9c0.7,0.8,1,1.5,1,2.2c0,0.8-0.3,1.5-1,2.2c0.8-0.6,1.5-0.9,2.2-0.9
		c0.8,0,1.5,0.3,2.2,0.9c-0.7-0.7-1-1.5-1-2.2c0-0.8,0.3-1.5,1-2.2C39.7,32.1,39,32.4,38.2,32.4"/>
	<path d="M47.2,32.4c-0.8,0-1.5-0.3-2.2-0.9c0.7,0.8,1,1.5,1,2.2c0,0.8-0.3,1.5-1,2.2c0.7-0.6,1.5-0.9,2.2-0.9
		c0.8,0,1.5,0.3,2.2,0.9c-0.7-0.7-1-1.5-1-2.2c0-0.8,0.3-1.5,1-2.2C48.7,32.1,48,32.4,47.2,32.4"/>
	<path d="M56.2,32.4c-0.8,0-1.5-0.3-2.2-0.9c0.7,0.8,1,1.5,1,2.2c0,0.8-0.3,1.5-1,2.2c0.7-0.6,1.5-0.9,2.2-0.9
		c0.8,0,1.5,0.3,2.2,0.9c-0.7-0.7-1-1.5-1-2.2c0-0.8,0.3-1.5,1-2.2C57.7,32.1,57,32.4,56.2,32.4"/>
	<path d="M65.3,32.4c-0.8,0-1.5-0.3-2.3-0.9c0.7,0.8,1,1.5,1,2.2c0,0.8-0.3,1.5-1,2.2c0.8-0.6,1.5-0.9,2.3-0.9
		c0.8,0,1.5,0.3,2.2,0.9c-0.7-0.7-1-1.5-1-2.2c0-0.8,0.3-1.5,1-2.2C66.8,32.1,66,32.4,65.3,32.4"/>
	<path d="M38.2,23.4c-0.8,0-1.5-0.3-2.2-0.9c0.7,0.8,1,1.5,1,2.3c0,0.8-0.3,1.5-1,2.2c0.8-0.6,1.5-0.9,2.2-0.9
		c0.8,0,1.5,0.3,2.2,0.9c-0.7-0.7-1-1.5-1-2.2c0-0.8,0.3-1.5,1-2.3C39.7,23.1,39,23.4,38.2,23.4"/>
	<path d="M47.2,23.4c-0.8,0-1.5-0.3-2.2-0.9c0.7,0.8,1,1.5,1,2.3c0,0.8-0.3,1.5-1,2.2c0.7-0.6,1.5-0.9,2.2-0.9
		c0.8,0,1.5,0.3,2.2,0.9c-0.7-0.7-1-1.5-1-2.2c0-0.8,0.3-1.5,1-2.3C48.7,23.1,48,23.4,47.2,23.4"/>
	<path d="M56.2,23.4c-0.8,0-1.5-0.3-2.2-0.9c0.7,0.8,1,1.5,1,2.3c0,0.8-0.3,1.5-1,2.2c0.7-0.6,1.5-0.9,2.2-0.9
		c0.8,0,1.5,0.3,2.2,0.9c-0.7-0.7-1-1.5-1-2.2c0-0.8,0.3-1.5,1-2.3C57.7,23.1,57,23.4,56.2,23.4"/>
	<path d="M65.3,23.4c-0.8,0-1.5-0.3-2.3-0.9c0.7,0.8,1,1.5,1,2.3c0,0.8-0.3,1.5-1,2.2c0.8-0.6,1.5-0.9,2.3-0.9
		c0.8,0,1.5,0.3,2.2,0.9c-0.7-0.7-1-1.5-1-2.2c0-0.8,0.3-1.5,1-2.3C66.8,23.1,66,23.4,65.3,23.4"/>
	<path d="M38.2,14.4c-0.8,0-1.5-0.3-2.2-0.9c0.7,0.8,1,1.5,1,2.2c0,0.8-0.3,1.5-1,2.2c0.8-0.6,1.5-0.9,2.2-0.9
		c0.8,0,1.5,0.3,2.2,0.9c-0.7-0.8-1-1.5-1-2.2c0-0.8,0.3-1.5,1-2.2C39.7,14.1,39,14.4,38.2,14.4"/>
	<path d="M47.2,14.4c-0.8,0-1.5-0.3-2.2-0.9c0.7,0.8,1,1.5,1,2.2c0,0.8-0.3,1.5-1,2.2c0.7-0.6,1.5-0.9,2.2-0.9
		c0.8,0,1.5,0.3,2.2,0.9c-0.7-0.8-1-1.5-1-2.2c0-0.8,0.3-1.5,1-2.2C48.7,14.1,48,14.4,47.2,14.4"/>
	<path d="M56.2,14.4c-0.8,0-1.5-0.3-2.2-0.9c0.7,0.8,1,1.5,1,2.2c0,0.8-0.3,1.5-1,2.2c0.7-0.6,1.5-0.9,2.2-0.9
		c0.8,0,1.5,0.3,2.2,0.9c-0.7-0.8-1-1.5-1-2.2c0-0.8,0.3-1.5,1-2.2C57.7,14.1,57,14.4,56.2,14.4"/>
	<path d="M65.3,14.4c-0.8,0-1.5-0.3-2.3-0.9c0.7,0.8,1,1.5,1,2.2c0,0.8-0.3,1.5-1,2.2c0.8-0.6,1.5-0.9,2.3-0.9
		c0.8,0,1.5,0.3,2.2,0.9c-0.7-0.8-1-1.5-1-2.2c0-0.8,0.3-1.5,1-2.2C66.8,14.1,66,14.4,65.3,14.4"/>
	<path d="M38.2,5.4c-0.8,0-1.5-0.3-2.2-0.9c0.7,0.7,1,1.5,1,2.2c0,0.8-0.3,1.5-1,2.3c0.8-0.6,1.5-0.9,2.2-0.9c0.8,0,1.5,0.3,2.2,0.9
		c-0.7-0.8-1-1.5-1-2.3c0-0.8,0.3-1.5,1-2.2C39.7,5.1,39,5.4,38.2,5.4"/>
	<path d="M47.2,5.4c-0.8,0-1.5-0.3-2.2-0.9c0.7,0.7,1,1.5,1,2.2c0,0.8-0.3,1.5-1,2.3c0.7-0.6,1.5-0.9,2.2-0.9c0.8,0,1.5,0.3,2.2,0.9
		c-0.7-0.8-1-1.5-1-2.3c0-0.8,0.3-1.5,1-2.2C48.7,5.1,48,5.4,47.2,5.4"/>
	<path d="M56.2,5.4c-0.8,0-1.5-0.3-2.2-0.9c0.7,0.7,1,1.5,1,2.2c0,0.8-0.3,1.5-1,2.3c0.7-0.6,1.5-0.9,2.2-0.9c0.8,0,1.5,0.3,2.2,0.9
		c-0.7-0.8-1-1.5-1-2.3c0-0.8,0.3-1.5,1-2.2C57.7,5.1,57,5.4,56.2,5.4"/>
	<path d="M65.3,5.4c-0.8,0-1.5-0.3-2.3-0.9c0.7,0.7,1,1.5,1,2.2c0,0.8-0.3,1.5-1,2.3c0.8-0.6,1.5-0.9,2.3-0.9c0.8,0,1.5,0.3,2.2,0.9
		c-0.7-0.8-1-1.5-1-2.3c0-0.8,0.3-1.5,1-2.2C66.8,5.1,66,5.4,65.3,5.4"/>
	<path d="M42.7,27.9c-0.8,0-1.5-0.3-2.2-0.9c0.7,0.8,1,1.5,1,2.3c0,0.8-0.3,1.5-1,2.2c0.8-0.6,1.5-0.9,2.2-0.9
		c0.8,0,1.5,0.3,2.3,0.9c-0.7-0.7-1-1.5-1-2.2c0-0.8,0.3-1.5,1-2.3C44.2,27.6,43.5,27.9,42.7,27.9"/>
	<path d="M51.7,27.9c-0.8,0-1.5-0.3-2.2-0.9c0.7,0.8,1,1.5,1,2.3c0,0.8-0.3,1.5-1,2.2c0.7-0.6,1.5-0.9,2.2-0.9
		c0.8,0,1.5,0.3,2.3,0.9c-0.7-0.7-1-1.5-1-2.2c0-0.8,0.3-1.5,1-2.3C53.2,27.6,52.5,27.9,51.7,27.9"/>
	<path d="M60.7,27.9c-0.8,0-1.5-0.3-2.2-0.9c0.7,0.8,1,1.5,1,2.3c0,0.8-0.3,1.5-1,2.2c0.8-0.6,1.5-0.9,2.2-0.9
		c0.8,0,1.5,0.3,2.2,0.9c-0.7-0.7-1-1.5-1-2.2c0-0.8,0.3-1.5,1-2.3C62.2,27.6,61.5,27.9,60.7,27.9"/>
	<path d="M71,29.2c0-0.8,0.3-1.5,1-2.3c-0.8,0.6-1.5,0.9-2.3,0.9c-0.8,0-1.5-0.3-2.2-0.9c0.7,0.8,1,1.5,1,2.3c0,0.8-0.3,1.5-1,2.2
		c0.8-0.6,1.5-0.9,2.2-0.9c0.8,0,1.5,0.3,2.3,0.9C71.3,30.8,71,30,71,29.2"/>
	<path d="M42.7,18.9c-0.8,0-1.5-0.3-2.2-0.9c0.7,0.8,1,1.5,1,2.2c0,0.8-0.3,1.5-1,2.2c0.8-0.6,1.5-0.9,2.2-0.9
		c0.8,0,1.5,0.3,2.3,0.9c-0.7-0.8-1-1.5-1-2.2c0-0.8,0.3-1.5,1-2.2C44.2,18.6,43.5,18.9,42.7,18.9"/>
	<path d="M51.7,18.9c-0.8,0-1.5-0.3-2.2-0.9c0.7,0.8,1,1.5,1,2.2c0,0.8-0.3,1.5-1,2.2c0.7-0.6,1.5-0.9,2.2-0.9
		c0.8,0,1.5,0.3,2.3,0.9c-0.7-0.8-1-1.5-1-2.2c0-0.8,0.3-1.5,1-2.2C53.2,18.6,52.5,18.9,51.7,18.9"/>
	<path d="M60.7,18.9c-0.8,0-1.5-0.3-2.2-0.9c0.7,0.8,1,1.5,1,2.2c0,0.8-0.3,1.5-1,2.2c0.8-0.6,1.5-0.9,2.2-0.9
		c0.8,0,1.5,0.3,2.2,0.9c-0.7-0.8-1-1.5-1-2.2c0-0.8,0.3-1.5,1-2.2C62.2,18.6,61.5,18.9,60.7,18.9"/>
	<path d="M69.8,21.6c0.8,0,1.5,0.3,2.2,0.9c-0.7-0.8-1-1.5-1-2.2c0-0.8,0.3-1.5,1-2.2c-0.7,0.6-1.5,0.9-2.2,0.9
		c-0.8,0-1.5-0.3-2.3-0.9c0.7,0.8,1,1.5,1,2.2c0,0.8-0.3,1.5-1,2.2C68.3,21.9,69,21.6,69.8,21.6"/>
	<path d="M42.7,9.9c-0.8,0-1.5-0.3-2.2-0.9c0.7,0.7,1,1.5,1,2.2c0,0.8-0.3,1.5-1,2.3c0.8-0.6,1.5-0.9,2.2-0.9c0.8,0,1.5,0.3,2.3,0.9
		c-0.7-0.8-1-1.5-1-2.3c0-0.8,0.3-1.5,1-2.2C44.2,9.6,43.5,9.9,42.7,9.9"/>
	<path d="M51.7,9.9c-0.8,0-1.5-0.3-2.2-0.9c0.7,0.7,1,1.5,1,2.2c0,0.8-0.3,1.5-1,2.3c0.7-0.6,1.5-0.9,2.2-0.9c0.8,0,1.5,0.3,2.3,0.9
		c-0.7-0.8-1-1.5-1-2.3c0-0.8,0.3-1.5,1-2.2C53.2,9.6,52.5,9.9,51.7,9.9"/>
	<path d="M60.7,9.9c-0.8,0-1.5-0.3-2.2-0.9c0.7,0.7,1,1.5,1,2.2c0,0.8-0.3,1.5-1,2.3c0.8-0.6,1.5-0.9,2.2-0.9c0.8,0,1.5,0.3,2.2,0.9
		c-0.7-0.8-1-1.5-1-2.3c0-0.8,0.3-1.5,1-2.2C62.2,9.6,61.5,9.9,60.7,9.9"/>
	<path d="M69.8,12.6c0.8,0,1.5,0.3,2.2,0.9c-0.7-0.8-1-1.5-1-2.3c0-0.8,0.3-1.5,1-2.2c-0.7,0.6-1.5,0.9-2.2,0.9
		c-0.8,0-1.5-0.3-2.3-0.9c0.7,0.7,1,1.5,1,2.2c0,0.8-0.3,1.5-1,2.3C68.3,12.9,69,12.6,69.8,12.6"/>
	<path d="M42.7,0.9c-0.8,0-1.5-0.3-2.2-0.9c0.7,0.8,1,1.5,1,2.2c0,0.8-0.3,1.5-1,2.3c0.8-0.6,1.5-0.9,2.2-0.9c0.8,0,1.5,0.3,2.3,0.9
		c-0.7-0.8-1-1.5-1-2.3c0-0.8,0.3-1.5,1-2.2C44.2,0.6,43.5,0.9,42.7,0.9"/>
	<path d="M51.7,0.9c-0.8,0-1.5-0.3-2.2-0.9c0.7,0.8,1,1.5,1,2.2c0,0.8-0.3,1.5-1,2.3c0.7-0.6,1.5-0.9,2.2-0.9c0.8,0,1.5,0.3,2.3,0.9
		c-0.7-0.8-1-1.5-1-2.3c0-0.8,0.3-1.5,1-2.2C53.2,0.6,52.5,0.9,51.7,0.9"/>
	<path d="M60.7,0.9c-0.8,0-1.5-0.3-2.2-0.9c0.7,0.8,1,1.5,1,2.2c0,0.8-0.3,1.5-1,2.3c0.8-0.6,1.5-0.9,2.2-0.9c0.8,0,1.5,0.3,2.2,0.9
		c-0.7-0.8-1-1.5-1-2.3c0-0.8,0.3-1.5,1-2.2C62.2,0.6,61.5,0.9,60.7,0.9"/>
	<path d="M69.8,3.6c0.8,0,1.5,0.3,2.2,0.9c-0.7-0.8-1-1.5-1-2.3c0-0.8,0.3-1.5,1-2.2c-0.7,0.6-1.5,0.9-2.2,0.9
		c-0.8,0-1.5-0.3-2.3-0.9c0.7,0.7,1,1.5,1,2.2c0,0.8-0.3,1.5-1,2.3C68.3,3.9,69,3.6,69.8,3.6"/>
	<path d="M2.2,68.4c-0.8,0-1.5-0.3-2.2-0.9c0.7,0.7,1,1.5,1,2.2c0,0.8-0.3,1.5-1,2.2c0.8-0.6,1.5-0.9,2.2-0.9c0.8,0,1.5,0.3,2.2,0.9
		c-0.7-0.8-1-1.5-1-2.2c0-0.8,0.3-1.5,1-2.2C3.7,68.1,3,68.4,2.2,68.4"/>
	<path d="M11.2,68.4c-0.8,0-1.5-0.3-2.2-0.9c0.7,0.7,1,1.5,1,2.2c0,0.8-0.3,1.5-1,2.2c0.8-0.6,1.5-0.9,2.2-0.9
		c0.8,0,1.5,0.3,2.2,0.9c-0.7-0.8-1-1.5-1-2.2c0-0.8,0.3-1.5,1-2.2C12.7,68.1,12,68.4,11.2,68.4"/>
	<path d="M20.2,68.4c-0.8,0-1.5-0.3-2.2-0.9c0.7,0.7,1,1.5,1,2.2c0,0.8-0.3,1.5-1,2.2c0.8-0.6,1.5-0.9,2.2-0.9
		c0.8,0,1.5,0.3,2.2,0.9c-0.7-0.8-1-1.5-1-2.2c0-0.8,0.3-1.5,1-2.2C21.7,68.1,21,68.4,20.2,68.4"/>
	<path d="M29.2,68.4c-0.8,0-1.5-0.3-2.2-0.9c0.7,0.7,1,1.5,1,2.2c0,0.8-0.3,1.5-1,2.2c0.8-0.6,1.5-0.9,2.2-0.9
		c0.8,0,1.5,0.3,2.2,0.9c-0.7-0.8-1-1.5-1-2.2c0-0.8,0.3-1.5,1-2.2C30.7,68.1,30,68.4,29.2,68.4"/>
	<path d="M2.2,59.4c-0.8,0-1.5-0.3-2.2-0.9c0.7,0.7,1,1.5,1,2.2c0,0.8-0.3,1.5-1,2.3c0.8-0.6,1.5-0.9,2.2-0.9c0.8,0,1.5,0.3,2.2,0.9
		c-0.7-0.8-1-1.5-1-2.3c0-0.8,0.3-1.5,1-2.2C3.7,59.1,3,59.4,2.2,59.4"/>
	<path d="M11.2,59.4c-0.8,0-1.5-0.3-2.2-0.9c0.7,0.7,1,1.5,1,2.2c0,0.8-0.3,1.5-1,2.3c0.8-0.6,1.5-0.9,2.2-0.9
		c0.8,0,1.5,0.3,2.2,0.9c-0.7-0.8-1-1.5-1-2.3c0-0.8,0.3-1.5,1-2.2C12.7,59.1,12,59.4,11.2,59.4"/>
	<path d="M20.2,59.4c-0.8,0-1.5-0.3-2.2-0.9c0.7,0.7,1,1.5,1,2.2c0,0.8-0.3,1.5-1,2.3c0.8-0.6,1.5-0.9,2.2-0.9
		c0.8,0,1.5,0.3,2.2,0.9c-0.7-0.8-1-1.5-1-2.3c0-0.8,0.3-1.5,1-2.2C21.7,59.1,21,59.4,20.2,59.4"/>
	<path d="M29.2,59.4c-0.8,0-1.5-0.3-2.2-0.9c0.7,0.7,1,1.5,1,2.2c0,0.8-0.3,1.5-1,2.3c0.8-0.6,1.5-0.9,2.2-0.9
		c0.8,0,1.5,0.3,2.2,0.9c-0.7-0.8-1-1.5-1-2.3c0-0.8,0.3-1.5,1-2.2C30.7,59.1,30,59.4,29.2,59.4"/>
	<path d="M2.2,50.4c-0.8,0-1.5-0.3-2.2-0.9c0.7,0.7,1,1.5,1,2.2c0,0.8-0.3,1.5-1,2.3c0.8-0.6,1.5-0.9,2.2-0.9c0.8,0,1.5,0.3,2.2,0.9
		c-0.7-0.8-1-1.5-1-2.3c0-0.8,0.3-1.5,1-2.2C3.7,50.1,3,50.4,2.2,50.4"/>
	<path d="M11.2,50.4c-0.8,0-1.5-0.3-2.2-0.9c0.7,0.7,1,1.5,1,2.2c0,0.8-0.3,1.5-1,2.3c0.8-0.6,1.5-0.9,2.2-0.9
		c0.8,0,1.5,0.3,2.2,0.9c-0.7-0.8-1-1.5-1-2.3c0-0.8,0.3-1.5,1-2.2C12.7,50.1,12,50.4,11.2,50.4"/>
	<path d="M20.2,50.4c-0.8,0-1.5-0.3-2.2-0.9c0.7,0.7,1,1.5,1,2.2c0,0.8-0.3,1.5-1,2.3c0.8-0.6,1.5-0.9,2.2-0.9
		c0.8,0,1.5,0.3,2.2,0.9c-0.7-0.8-1-1.5-1-2.3c0-0.8,0.3-1.5,1-2.2C21.7,50.1,21,50.4,20.2,50.4"/>
	<path d="M29.2,50.4c-0.8,0-1.5-0.3-2.2-0.9c0.7,0.7,1,1.5,1,2.2c0,0.8-0.3,1.5-1,2.3c0.8-0.6,1.5-0.9,2.2-0.9
		c0.8,0,1.5,0.3,2.2,0.9c-0.7-0.8-1-1.5-1-2.3c0-0.8,0.3-1.5,1-2.2C30.7,50.1,30,50.4,29.2,50.4"/>
	<path d="M2.2,41.4c-0.8,0-1.5-0.3-2.2-0.9c0.7,0.8,1,1.5,1,2.2c0,0.8-0.3,1.5-1,2.3c0.8-0.6,1.5-0.9,2.2-0.9c0.8,0,1.5,0.3,2.2,0.9
		c-0.7-0.7-1-1.5-1-2.3c0-0.8,0.3-1.5,1-2.2C3.7,41.1,3,41.4,2.2,41.4"/>
	<path d="M11.2,41.4c-0.8,0-1.5-0.3-2.2-0.9c0.7,0.8,1,1.5,1,2.2c0,0.8-0.3,1.5-1,2.3c0.8-0.6,1.5-0.9,2.2-0.9
		c0.8,0,1.5,0.3,2.2,0.9c-0.7-0.7-1-1.5-1-2.3c0-0.8,0.3-1.5,1-2.2C12.7,41.1,12,41.4,11.2,41.4"/>
	<path d="M20.2,41.4c-0.8,0-1.5-0.3-2.2-0.9c0.7,0.8,1,1.5,1,2.2c0,0.8-0.3,1.5-1,2.3c0.8-0.6,1.5-0.9,2.2-0.9
		c0.8,0,1.5,0.3,2.2,0.9c-0.7-0.7-1-1.5-1-2.3c0-0.8,0.3-1.5,1-2.2C21.7,41.1,21,41.4,20.2,41.4"/>
	<path d="M29.2,41.4c-0.8,0-1.5-0.3-2.2-0.9c0.7,0.8,1,1.5,1,2.2c0,0.8-0.3,1.5-1,2.3c0.8-0.6,1.5-0.9,2.2-0.9
		c0.8,0,1.5,0.3,2.2,0.9c-0.7-0.7-1-1.5-1-2.3c0-0.8,0.3-1.5,1-2.2C30.7,41.1,30,41.4,29.2,41.4"/>
	<path d="M6.7,63.9c-0.8,0-1.5-0.3-2.2-0.9c0.7,0.7,1,1.5,1,2.2c0,0.8-0.3,1.5-1,2.3c0.8-0.6,1.5-0.9,2.2-0.9c0.8,0,1.5,0.3,2.2,0.9
		c-0.7-0.8-1-1.5-1-2.3c0-0.8,0.3-1.5,1-2.2C8.2,63.6,7.5,63.9,6.7,63.9"/>
	<path d="M15.7,63.9c-0.8,0-1.5-0.3-2.2-0.9c0.7,0.7,1,1.5,1,2.2c0,0.8-0.3,1.5-1,2.3c0.8-0.6,1.5-0.9,2.2-0.9
		c0.8,0,1.5,0.3,2.3,0.9c-0.7-0.8-1-1.5-1-2.3c0-0.8,0.3-1.5,1-2.2C17.2,63.6,16.5,63.9,15.7,63.9"/>
	<path d="M24.7,63.9c-0.8,0-1.5-0.3-2.2-0.9c0.7,0.7,1,1.5,1,2.2c0,0.8-0.3,1.5-1,2.3c0.8-0.6,1.5-0.9,2.2-0.9
		c0.8,0,1.5,0.3,2.2,0.9c-0.7-0.8-1-1.5-1-2.3c0-0.8,0.3-1.5,1-2.2C26.2,63.6,25.5,63.9,24.7,63.9"/>
	<path d="M35,65.3c0-0.8,0.3-1.5,1-2.2c-0.7,0.6-1.5,0.9-2.2,0.9c-0.8,0-1.5-0.3-2.2-0.9c0.7,0.7,1,1.5,1,2.2c0,0.8-0.3,1.5-1,2.3
		c0.8-0.6,1.5-0.9,2.2-0.9c0.8,0,1.5,0.3,2.2,0.9C35.3,66.8,35,66,35,65.3"/>
	<path d="M6.7,54.9c-0.8,0-1.5-0.3-2.2-0.9c0.7,0.7,1,1.5,1,2.2c0,0.8-0.3,1.5-1,2.3c0.8-0.6,1.5-0.9,2.2-0.9c0.8,0,1.5,0.3,2.2,0.9
		c-0.7-0.8-1-1.5-1-2.3c0-0.8,0.3-1.5,1-2.2C8.2,54.6,7.5,54.9,6.7,54.9"/>
	<path d="M15.7,54.9c-0.8,0-1.5-0.3-2.2-0.9c0.7,0.7,1,1.5,1,2.2c0,0.8-0.3,1.5-1,2.3c0.8-0.6,1.5-0.9,2.2-0.9
		c0.8,0,1.5,0.3,2.3,0.9c-0.7-0.8-1-1.5-1-2.3c0-0.8,0.3-1.5,1-2.2C17.2,54.6,16.5,54.9,15.7,54.9"/>
	<path d="M24.7,54.9c-0.8,0-1.5-0.3-2.2-0.9c0.7,0.7,1,1.5,1,2.2c0,0.8-0.3,1.5-1,2.3c0.8-0.6,1.5-0.9,2.2-0.9
		c0.8,0,1.5,0.3,2.2,0.9c-0.7-0.8-1-1.5-1-2.3c0-0.8,0.3-1.5,1-2.2C26.2,54.6,25.5,54.9,24.7,54.9"/>
	<path d="M33.7,57.6c0.8,0,1.5,0.3,2.2,0.9c-0.7-0.8-1-1.5-1-2.3c0-0.8,0.3-1.5,1-2.2c-0.7,0.6-1.5,0.9-2.2,0.9
		c-0.8,0-1.5-0.3-2.2-0.9c0.7,0.7,1,1.5,1,2.2c0,0.8-0.3,1.5-1,2.3C32.2,57.9,33,57.6,33.7,57.6"/>
	<path d="M6.7,45.9c-0.8,0-1.5-0.3-2.2-0.9c0.7,0.7,1,1.5,1,2.3c0,0.8-0.3,1.5-1,2.2c0.8-0.6,1.5-0.9,2.2-0.9c0.8,0,1.5,0.3,2.2,0.9
		c-0.7-0.8-1-1.5-1-2.2c0-0.8,0.3-1.5,1-2.3C8.2,45.6,7.5,45.9,6.7,45.9"/>
	<path d="M15.7,45.9c-0.8,0-1.5-0.3-2.2-0.9c0.7,0.7,1,1.5,1,2.3c0,0.8-0.3,1.5-1,2.2c0.8-0.6,1.5-0.9,2.2-0.9
		c0.8,0,1.5,0.3,2.3,0.9c-0.7-0.8-1-1.5-1-2.2c0-0.8,0.3-1.5,1-2.3C17.2,45.6,16.5,45.9,15.7,45.9"/>
	<path d="M24.7,45.9c-0.8,0-1.5-0.3-2.2-0.9c0.7,0.7,1,1.5,1,2.3c0,0.8-0.3,1.5-1,2.2c0.8-0.6,1.5-0.9,2.2-0.9
		c0.8,0,1.5,0.3,2.2,0.9c-0.7-0.8-1-1.5-1-2.2c0-0.8,0.3-1.5,1-2.3C26.2,45.6,25.5,45.9,24.7,45.9"/>
	<path d="M33.7,48.6c0.8,0,1.5,0.3,2.2,0.9c-0.7-0.8-1-1.5-1-2.3c0-0.8,0.3-1.5,1-2.2c-0.7,0.6-1.5,0.9-2.2,0.9
		c-0.8,0-1.5-0.3-2.2-0.9c0.7,0.7,1,1.5,1,2.2c0,0.8-0.3,1.5-1,2.3C32.2,48.9,33,48.6,33.7,48.6"/>
	<path d="M6.7,36.9c-0.8,0-1.5-0.3-2.2-0.9c0.7,0.7,1,1.5,1,2.3c0,0.8-0.3,1.5-1,2.2c0.8-0.6,1.5-0.9,2.2-0.9c0.8,0,1.5,0.3,2.2,0.9
		c-0.7-0.8-1-1.5-1-2.2c0-0.8,0.3-1.5,1-2.3C8.2,36.6,7.5,36.9,6.7,36.9"/>
	<path d="M15.7,36.9c-0.8,0-1.5-0.3-2.2-0.9c0.7,0.7,1,1.5,1,2.3c0,0.8-0.3,1.5-1,2.2c0.8-0.6,1.5-0.9,2.2-0.9
		c0.8,0,1.5,0.3,2.3,0.9c-0.7-0.8-1-1.5-1-2.2c0-0.8,0.3-1.5,1-2.3C17.2,36.6,16.5,36.9,15.7,36.9"/>
	<path d="M24.7,36.9c-0.8,0-1.5-0.3-2.2-0.9c0.7,0.7,1,1.5,1,2.3c0,0.8-0.3,1.5-1,2.2c0.8-0.6,1.5-0.9,2.2-0.9
		c0.8,0,1.5,0.3,2.2,0.9c-0.7-0.8-1-1.5-1-2.2c0-0.8,0.3-1.5,1-2.3C26.2,36.6,25.5,36.9,24.7,36.9"/>
	<path d="M33.7,39.6c0.8,0,1.5,0.3,2.2,0.9c-0.7-0.8-1-1.5-1-2.2c0-0.8,0.3-1.5,1-2.3c-0.7,0.6-1.5,0.9-2.2,0.9
		c-0.8,0-1.5-0.3-2.2-0.9c0.7,0.7,1,1.5,1,2.3c0,0.8-0.3,1.5-1,2.2C32.2,39.9,33,39.6,33.7,39.6"/>
	<path d="M2.2,32.4c-0.8,0-1.5-0.3-2.2-0.9c0.7,0.8,1,1.5,1,2.2c0,0.8-0.3,1.5-1,2.2c0.8-0.6,1.5-0.9,2.2-0.9c0.8,0,1.5,0.3,2.2,0.9
		c-0.7-0.7-1-1.5-1-2.2c0-0.8,0.3-1.5,1-2.2C3.7,32.1,3,32.4,2.2,32.4"/>
	<path d="M11.2,32.4c-0.8,0-1.5-0.3-2.2-0.9c0.7,0.8,1,1.5,1,2.2c0,0.8-0.3,1.5-1,2.2c0.8-0.6,1.5-0.9,2.2-0.9
		c0.8,0,1.5,0.3,2.2,0.9c-0.7-0.7-1-1.5-1-2.2c0-0.8,0.3-1.5,1-2.2C12.7,32.1,12,32.4,11.2,32.4"/>
	<path d="M20.2,32.4c-0.8,0-1.5-0.3-2.2-0.9c0.7,0.8,1,1.5,1,2.2c0,0.8-0.3,1.5-1,2.2c0.8-0.6,1.5-0.9,2.2-0.9
		c0.8,0,1.5,0.3,2.2,0.9c-0.7-0.7-1-1.5-1-2.2c0-0.8,0.3-1.5,1-2.2C21.7,32.1,21,32.4,20.2,32.4"/>
	<path d="M29.2,32.4c-0.8,0-1.5-0.3-2.2-0.9c0.7,0.8,1,1.5,1,2.2c0,0.8-0.3,1.5-1,2.2c0.8-0.6,1.5-0.9,2.2-0.9
		c0.8,0,1.5,0.3,2.2,0.9c-0.7-0.7-1-1.5-1-2.2c0-0.8,0.3-1.5,1-2.2C30.7,32.1,30,32.4,29.2,32.4"/>
	<path d="M2.2,23.4c-0.8,0-1.5-0.3-2.2-0.9c0.7,0.8,1,1.5,1,2.3c0,0.8-0.3,1.5-1,2.2c0.8-0.6,1.5-0.9,2.2-0.9c0.8,0,1.5,0.3,2.2,0.9
		c-0.7-0.7-1-1.5-1-2.2c0-0.8,0.3-1.5,1-2.3C3.7,23.1,3,23.4,2.2,23.4"/>
	<path d="M11.2,23.4c-0.8,0-1.5-0.3-2.2-0.9c0.7,0.8,1,1.5,1,2.3c0,0.8-0.3,1.5-1,2.2c0.8-0.6,1.5-0.9,2.2-0.9
		c0.8,0,1.5,0.3,2.2,0.9c-0.7-0.7-1-1.5-1-2.2c0-0.8,0.3-1.5,1-2.3C12.7,23.1,12,23.4,11.2,23.4"/>
	<path d="M20.2,23.4c-0.8,0-1.5-0.3-2.2-0.9c0.7,0.8,1,1.5,1,2.3c0,0.8-0.3,1.5-1,2.2c0.8-0.6,1.5-0.9,2.2-0.9
		c0.8,0,1.5,0.3,2.2,0.9c-0.7-0.7-1-1.5-1-2.2c0-0.8,0.3-1.5,1-2.3C21.7,23.1,21,23.4,20.2,23.4"/>
	<path d="M29.2,23.4c-0.8,0-1.5-0.3-2.2-0.9c0.7,0.8,1,1.5,1,2.3c0,0.8-0.3,1.5-1,2.2c0.8-0.6,1.5-0.9,2.2-0.9
		c0.8,0,1.5,0.3,2.2,0.9c-0.7-0.7-1-1.5-1-2.2c0-0.8,0.3-1.5,1-2.3C30.7,23.1,30,23.4,29.2,23.4"/>
	<path d="M2.2,14.4c-0.8,0-1.5-0.3-2.2-0.9c0.7,0.8,1,1.5,1,2.2c0,0.8-0.3,1.5-1,2.2c0.8-0.6,1.5-0.9,2.2-0.9c0.8,0,1.5,0.3,2.2,0.9
		c-0.7-0.8-1-1.5-1-2.2c0-0.8,0.3-1.5,1-2.2C3.7,14.1,3,14.4,2.2,14.4"/>
	<path d="M11.2,14.4c-0.8,0-1.5-0.3-2.2-0.9c0.7,0.8,1,1.5,1,2.2c0,0.8-0.3,1.5-1,2.2c0.8-0.6,1.5-0.9,2.2-0.9
		c0.8,0,1.5,0.3,2.2,0.9c-0.7-0.8-1-1.5-1-2.2c0-0.8,0.3-1.5,1-2.2C12.7,14.1,12,14.4,11.2,14.4"/>
	<path d="M20.2,14.4c-0.8,0-1.5-0.3-2.2-0.9c0.7,0.8,1,1.5,1,2.2c0,0.8-0.3,1.5-1,2.2c0.8-0.6,1.5-0.9,2.2-0.9
		c0.8,0,1.5,0.3,2.2,0.9c-0.7-0.8-1-1.5-1-2.2c0-0.8,0.3-1.5,1-2.2C21.7,14.1,21,14.4,20.2,14.4"/>
	<path d="M29.2,14.4c-0.8,0-1.5-0.3-2.2-0.9c0.7,0.8,1,1.5,1,2.2c0,0.8-0.3,1.5-1,2.2c0.8-0.6,1.5-0.9,2.2-0.9
		c0.8,0,1.5,0.3,2.2,0.9c-0.7-0.8-1-1.5-1-2.2c0-0.8,0.3-1.5,1-2.2C30.7,14.1,30,14.4,29.2,14.4"/>
	<path d="M2.2,5.4C1.5,5.4,0.7,5.1,0,4.5C0.7,5.3,1,6,1,6.8C1,7.5,0.7,8.3,0,9c0.8-0.6,1.5-0.9,2.2-0.9C3,8.1,3.7,8.4,4.5,9
		c-0.7-0.8-1-1.5-1-2.3c0-0.8,0.3-1.5,1-2.2C3.7,5.1,3,5.4,2.2,5.4"/>
	<path d="M11.2,5.4c-0.8,0-1.5-0.3-2.2-0.9c0.7,0.7,1,1.5,1,2.2C10,7.5,9.7,8.3,9,9c0.8-0.6,1.5-0.9,2.2-0.9c0.8,0,1.5,0.3,2.2,0.9
		c-0.7-0.8-1-1.5-1-2.3c0-0.8,0.3-1.5,1-2.2C12.7,5.1,12,5.4,11.2,5.4"/>
	<path d="M20.2,5.4c-0.8,0-1.5-0.3-2.2-0.9c0.7,0.7,1,1.5,1,2.2c0,0.8-0.3,1.5-1,2.3c0.8-0.6,1.5-0.9,2.2-0.9c0.8,0,1.5,0.3,2.2,0.9
		c-0.7-0.8-1-1.5-1-2.3c0-0.8,0.3-1.5,1-2.2C21.7,5.1,21,5.4,20.2,5.4"/>
	<path d="M29.2,5.4c-0.8,0-1.5-0.3-2.2-0.9c0.7,0.7,1,1.5,1,2.2c0,0.8-0.3,1.5-1,2.3c0.8-0.6,1.5-0.9,2.2-0.9c0.8,0,1.5,0.3,2.2,0.9
		c-0.7-0.8-1-1.5-1-2.3c0-0.8,0.3-1.5,1-2.2C30.7,5.1,30,5.4,29.2,5.4"/>
	<path d="M6.7,27.9c-0.8,0-1.5-0.3-2.2-0.9c0.7,0.8,1,1.5,1,2.3c0,0.8-0.3,1.5-1,2.2c0.8-0.6,1.5-0.9,2.2-0.9c0.8,0,1.5,0.3,2.2,0.9
		c-0.7-0.7-1-1.5-1-2.2c0-0.8,0.3-1.5,1-2.3C8.2,27.6,7.5,27.9,6.7,27.9"/>
	<path d="M15.7,27.9c-0.8,0-1.5-0.3-2.2-0.9c0.7,0.8,1,1.5,1,2.3c0,0.8-0.3,1.5-1,2.2c0.8-0.6,1.5-0.9,2.2-0.9
		c0.8,0,1.5,0.3,2.3,0.9c-0.7-0.7-1-1.5-1-2.2c0-0.8,0.3-1.5,1-2.3C17.2,27.6,16.5,27.9,15.7,27.9"/>
	<path d="M24.7,27.9c-0.8,0-1.5-0.3-2.2-0.9c0.7,0.8,1,1.5,1,2.3c0,0.8-0.3,1.5-1,2.2c0.8-0.6,1.5-0.9,2.2-0.9
		c0.8,0,1.5,0.3,2.2,0.9c-0.7-0.7-1-1.5-1-2.2c0-0.8,0.3-1.5,1-2.3C26.2,27.6,25.5,27.9,24.7,27.9"/>
	<path d="M35,29.2c0-0.8,0.3-1.5,1-2.3c-0.7,0.6-1.5,0.9-2.2,0.9c-0.8,0-1.5-0.3-2.2-0.9c0.7,0.8,1,1.5,1,2.3c0,0.8-0.3,1.5-1,2.2
		c0.8-0.6,1.5-0.9,2.2-0.9c0.8,0,1.5,0.3,2.2,0.9C35.3,30.8,35,30,35,29.2"/>
	<path d="M6.7,18.9c-0.8,0-1.5-0.3-2.2-0.9c0.7,0.8,1,1.5,1,2.2c0,0.8-0.3,1.5-1,2.2c0.8-0.6,1.5-0.9,2.2-0.9c0.8,0,1.5,0.3,2.2,0.9
		c-0.7-0.8-1-1.5-1-2.2c0-0.8,0.3-1.5,1-2.2C8.2,18.6,7.5,18.9,6.7,18.9"/>
	<path d="M15.7,18.9c-0.8,0-1.5-0.3-2.2-0.9c0.7,0.8,1,1.5,1,2.2c0,0.8-0.3,1.5-1,2.2c0.8-0.6,1.5-0.9,2.2-0.9
		c0.8,0,1.5,0.3,2.3,0.9c-0.7-0.8-1-1.5-1-2.2c0-0.8,0.3-1.5,1-2.2C17.2,18.6,16.5,18.9,15.7,18.9"/>
	<path d="M24.7,18.9c-0.8,0-1.5-0.3-2.2-0.9c0.7,0.8,1,1.5,1,2.2c0,0.8-0.3,1.5-1,2.2c0.8-0.6,1.5-0.9,2.2-0.9
		c0.8,0,1.5,0.3,2.2,0.9c-0.7-0.8-1-1.5-1-2.2c0-0.8,0.3-1.5,1-2.2C26.2,18.6,25.5,18.9,24.7,18.9"/>
	<path d="M33.7,21.6c0.8,0,1.5,0.3,2.2,0.9c-0.7-0.8-1-1.5-1-2.2c0-0.8,0.3-1.5,1-2.2c-0.7,0.6-1.5,0.9-2.2,0.9
		c-0.8,0-1.5-0.3-2.2-0.9c0.7,0.8,1,1.5,1,2.2c0,0.8-0.3,1.5-1,2.2C32.2,21.9,33,21.6,33.7,21.6"/>
	<path d="M6.7,9.9C6,9.9,5.2,9.6,4.5,9c0.7,0.7,1,1.5,1,2.2c0,0.8-0.3,1.5-1,2.3c0.8-0.6,1.5-0.9,2.2-0.9c0.8,0,1.5,0.3,2.2,0.9
		c-0.7-0.8-1-1.5-1-2.3C8,10.5,8.3,9.8,9,9C8.2,9.6,7.5,9.9,6.7,9.9"/>
	<path d="M15.7,9.9c-0.8,0-1.5-0.3-2.2-0.9c0.7,0.7,1,1.5,1,2.2c0,0.8-0.3,1.5-1,2.3c0.8-0.6,1.5-0.9,2.2-0.9c0.8,0,1.5,0.3,2.3,0.9
		c-0.7-0.8-1-1.5-1-2.3c0-0.8,0.3-1.5,1-2.2C17.2,9.6,16.5,9.9,15.7,9.9"/>
	<path d="M24.7,9.9c-0.8,0-1.5-0.3-2.2-0.9c0.7,0.7,1,1.5,1,2.2c0,0.8-0.3,1.5-1,2.3c0.8-0.6,1.5-0.9,2.2-0.9c0.8,0,1.5,0.3,2.2,0.9
		c-0.7-0.8-1-1.5-1-2.3c0-0.8,0.3-1.5,1-2.2C26.2,9.6,25.5,9.9,24.7,9.9"/>
	<path d="M33.7,12.6c0.8,0,1.5,0.3,2.2,0.9c-0.7-0.8-1-1.5-1-2.3c0-0.8,0.3-1.5,1-2.2c-0.7,0.6-1.5,0.9-2.2,0.9
		c-0.8,0-1.5-0.3-2.2-0.9c0.7,0.7,1,1.5,1,2.2c0,0.8-0.3,1.5-1,2.3C32.2,12.9,33,12.6,33.7,12.6"/>
	<path d="M6.7,0.9C6,0.9,5.2,0.6,4.5,0c0.7,0.8,1,1.5,1,2.2c0,0.8-0.3,1.5-1,2.3C5.2,3.9,6,3.6,6.7,3.6c0.8,0,1.5,0.3,2.2,0.9
		C8.3,3.8,8,3,8,2.3C8,1.5,8.3,0.8,9,0C8.2,0.6,7.5,0.9,6.7,0.9"/>
	<path d="M15.7,0.9c-0.8,0-1.5-0.3-2.2-0.9c0.7,0.8,1,1.5,1,2.2c0,0.8-0.3,1.5-1,2.3c0.8-0.6,1.5-0.9,2.2-0.9c0.8,0,1.5,0.3,2.3,0.9
		c-0.7-0.8-1-1.5-1-2.3c0-0.8,0.3-1.5,1-2.2C17.2,0.6,16.5,0.9,15.7,0.9"/>
	<path d="M24.7,0.9c-0.8,0-1.5-0.3-2.2-0.9c0.7,0.8,1,1.5,1,2.2c0,0.8-0.3,1.5-1,2.3c0.8-0.6,1.5-0.9,2.2-0.9c0.8,0,1.5,0.3,2.2,0.9
		c-0.7-0.8-1-1.5-1-2.3c0-0.8,0.3-1.5,1-2.2C26.2,0.6,25.5,0.9,24.7,0.9"/>
	<path d="M33.7,3.6c0.8,0,1.5,0.3,2.2,0.9c-0.7-0.8-1-1.5-1-2.3c0-0.8,0.3-1.5,1-2.2c-0.7,0.6-1.5,0.9-2.2,0.9
		c-0.8,0-1.5-0.3-2.2-0.9c0.7,0.7,1,1.5,1,2.2c0,0.8-0.3,1.5-1,2.3C32.2,3.9,33,3.6,33.7,3.6"/>
</g>
</svg>
