<?xml version="1.0" encoding="utf-8"?>
<!-- Generator: Adobe Illustrator 21.1.0, SVG Export Plug-In . SVG Version: 6.00 Build 0)  -->
<svg version="1.1" id="Calque_1" xmlns="http://www.w3.org/2000/svg" xmlns:xlink="http://www.w3.org/1999/xlink" x="0px" y="0px"
	 width="72.1px" height="72.1px" viewBox="0 0 72.1 72.1" enable-background="new 0 0 72.1 72.1" xml:space="preserve">
<g>
	<path d="M39.8,32.2C37.4,22.5,36,11.6,35.9,0C35.9,0,0,0,0,0C0,14.1,16.2,26.4,39.8,32.2"/>
	<path d="M39.8,32.2C45.8,55.8,58,72,72.1,71.9c0,0,0-14.5-0.1-36C60.4,36,49.5,34.6,39.8,32.2"/>
	<path d="M69.6,71.9L69.6,71.9C31.8,70.7,1.4,40.4,0,2.6C0,1.8,0,0.9,0,0l0.1,72.1l72-0.1h0C71.2,72,70.4,71.9,69.6,71.9"/>
</g>
</svg>
