<?xml version="1.0" encoding="utf-8"?>
<!-- Generator: Adobe Illustrator 21.1.0, SVG Export Plug-In . SVG Version: 6.00 Build 0)  -->
<svg version="1.1" id="Calque_1" xmlns="http://www.w3.org/2000/svg" xmlns:xlink="http://www.w3.org/1999/xlink" x="0px" y="0px"
	 width="72px" height="72px" viewBox="0 0 72 72" enable-background="new 0 0 72 72" xml:space="preserve">
<g>
	<polygon points="69.7,36 65.2,36 67.5,0 	"/>
	<polygon points="42.7,36 38.3,36 40.5,0 	"/>
	<polygon points="51.7,36 47.2,36 49.5,0 	"/>
	<polygon points="24.8,36 20.3,36 22.5,0 	"/>
	<polygon points="6.8,36 2.3,36 4.5,0 	"/>
	<polygon points="60.7,36 56.2,36 58.5,0 	"/>
	<polygon points="33.7,36 29.3,36 31.5,0 	"/>
	<polygon points="15.8,36 11.3,36 13.5,0 	"/>
	<polygon points="9,72 6.8,36 2.3,36 0,72 	"/>
	<polygon points="36,72 33.8,36 29.3,36 27,72 	"/>
	<polygon points="18,72 15.8,36 11.3,36 9,72 	"/>
	<polygon points="45,72 42.8,36 38.3,36 36,72 	"/>
	<polygon points="63,72 60.8,36 56.3,36 54,72 	"/>
	<polygon points="72,72 69.8,36 65.3,36 63,72 	"/>
	<polygon points="27,72 24.8,36 20.3,36 18,72 	"/>
	<polygon points="54,72 51.8,36 47.3,36 45,72 	"/>
</g>
</svg>
