<?xml version="1.0" encoding="utf-8"?>
<!-- Generator: Adobe Illustrator 21.1.0, SVG Export Plug-In . SVG Version: 6.00 Build 0)  -->
<svg version="1.1" id="Calque_1" xmlns="http://www.w3.org/2000/svg" xmlns:xlink="http://www.w3.org/1999/xlink" x="0px" y="0px"
	 width="72px" height="72px" viewBox="0 0 72 72" enable-background="new 0 0 72 72" xml:space="preserve">
<g>
	<path d="M0,72c0.5,0,1,0,1.5,0c0.5,0,0.9,0,1.4,0c0.5,0,1-0.1,1.5-0.1c0.5,0,0.9,0,1.4-0.1c0.5,0,1-0.1,1.5-0.1
		c0.4,0,0.9-0.1,1.3-0.1c0.5-0.1,1-0.1,1.5-0.2c0.4-0.1,0.9-0.1,1.3-0.2c0.5-0.1,1-0.2,1.5-0.3c0.4-0.1,0.9-0.1,1.3-0.2
		c0.5-0.1,1-0.2,1.5-0.3c0.4-0.1,0.8-0.2,1.3-0.3c0.5-0.1,1-0.3,1.5-0.4c0.4-0.1,0.8-0.2,1.2-0.3c0.5-0.1,1-0.3,1.5-0.5
		c0.4-0.1,0.8-0.2,1.1-0.3c0.5-0.2,1-0.3,1.5-0.5c0.4-0.1,0.7-0.2,1.1-0.4c0.5-0.2,1-0.4,1.5-0.6c0.4-0.1,0.7-0.3,1.1-0.4
		c0.5-0.2,1-0.4,1.5-0.6c0.3-0.2,0.7-0.3,1-0.4c0.5-0.2,1-0.5,1.5-0.7c0.3-0.2,0.7-0.3,1-0.5c0.5-0.2,1-0.5,1.5-0.8
		c0.3-0.2,0.6-0.3,0.9-0.5c0.5-0.3,1-0.6,1.5-0.9c0.3-0.2,0.6-0.3,0.9-0.5c0.5-0.3,1-0.6,1.4-0.9c0.3-0.2,0.6-0.4,0.8-0.5
		c0.5-0.3,0.9-0.6,1.4-1c0.3-0.2,0.5-0.4,0.8-0.6c0.5-0.4,1-0.7,1.5-1.1c0.2-0.2,0.5-0.3,0.7-0.5c0.5-0.4,0.9-0.7,1.4-1.1
		c0.2-0.2,0.5-0.4,0.7-0.6c0.5-0.4,1-0.8,1.4-1.2c0.2-0.2,0.4-0.3,0.6-0.5c0.5-0.4,1-0.9,1.4-1.3c0.2-0.2,0.4-0.3,0.5-0.5
		c0.5-0.5,1-1,1.4-1.4c0.1-0.2,0.3-0.3,0.5-0.5c0.5-0.5,0.9-1,1.4-1.5c0.1-0.2,0.3-0.3,0.4-0.5c0.5-0.5,0.9-1,1.4-1.6
		c0.1-0.2,0.3-0.3,0.4-0.5c0.5-0.6,0.9-1.1,1.4-1.7c0.1-0.1,0.2-0.2,0.3-0.4c0.5-0.6,0.9-1.2,1.4-1.9c0.1-0.1,0.2-0.2,0.2-0.3
		c0.4-0.6,0.8-1.2,1.2-1.8c0.1-0.2,0.2-0.3,0.3-0.5c0.4-0.6,0.8-1.2,1.2-1.8c0.1-0.1,0.2-0.3,0.3-0.4c0.4-0.7,0.8-1.4,1.2-2.1
		c0.1-0.1,0.1-0.2,0.2-0.3c0.4-0.8,0.8-1.5,1.2-2.3c0,0,0,0,0-0.1c0.4-0.7,0.7-1.5,1.1-2.2c0-0.1,0.1-0.2,0.1-0.2
		c0.8-1.6,1.5-3.3,2.1-5c0.7-1.8,1.2-3.6,1.8-5.4c0,0,0-0.1,0-0.1C71.1,13.3,72,6.8,72,0H0V72z"/>
</g>
</svg>
