<?xml version="1.0" encoding="utf-8"?>
<!-- Generator: Adobe Illustrator 21.1.0, SVG Export Plug-In . SVG Version: 6.00 Build 0)  -->
<svg version="1.1" id="Calque_1" xmlns="http://www.w3.org/2000/svg" xmlns:xlink="http://www.w3.org/1999/xlink" x="0px" y="0px"
	 width="72px" height="72px" viewBox="0 0 72 72" enable-background="new 0 0 72 72" xml:space="preserve">
<path d="M21.1,21.1C8,34.1,0,52.1,0,72v0l7.2,0c0-17.9,7.2-34.1,18.9-45.8L21.1,21.1z"/>
<path d="M14.4,72l7.2,0c0-13.9,5.6-26.5,14.7-35.7l-5.1-5.1C20.8,41.7,14.4,56.1,14.4,72L14.4,72z"/>
<path d="M46.5,46.5l-5.1-5.1C33.6,49.2,28.8,60,28.8,72l7.2,0C36,62,40,53,46.5,46.5"/>
<path d="M56.7,56.7l-5.1-5.1C46.4,56.8,43.2,64,43.2,72l7.2,0C50.4,66,52.8,60.6,56.7,56.7"/>
<path d="M64.8,71.9c0-2,0.8-3.8,2.1-5.1l-5.1-5.1c-2.6,2.6-4.2,6.2-4.2,10.2L64.8,71.9L64.8,71.9z"/>
</svg>
