<?xml version="1.0" encoding="utf-8"?>
<!-- Generator: Adobe Illustrator 21.1.0, SVG Export Plug-In . SVG Version: 6.00 Build 0)  -->
<svg version="1.1" id="Calque_1" xmlns="http://www.w3.org/2000/svg" xmlns:xlink="http://www.w3.org/1999/xlink" x="0px" y="0px"
	 width="72px" height="72px" viewBox="0 0 72 72" enable-background="new 0 0 72 72" xml:space="preserve">
<g>
	<path d="M50.9,21L50.9,21C37.9,8,19.9,0,0,0l0,43.2c8,0,15.2,3.2,20.4,8.4l0,0c5.2,5.2,8.4,12.4,8.4,20.4l7.2,0h0l7.2,0
		c0-11.9-4.9-22.7-12.7-30.5l10.2-10.2C51.2,41.6,57.6,56,57.6,71.9l7.2,0l7.2,0C72,52.1,63.9,34.1,50.9,21z"/>
	<path d="M5.1,66.9L0,72l7.2,0l7.2,0c0-4-1.6-7.6-4.2-10.2L5.1,66.9z"/>
</g>
</svg>
