<?xml version="1.0" encoding="utf-8"?>
<!-- Generator: Adobe Illustrator 21.1.0, SVG Export Plug-In . SVG Version: 6.00 Build 0)  -->
<svg version="1.1" id="Calque_1" xmlns="http://www.w3.org/2000/svg" xmlns:xlink="http://www.w3.org/1999/xlink" x="0px" y="0px"
	 width="72px" height="72px" viewBox="0 0 72 72" enable-background="new 0 0 72 72" xml:space="preserve">
<g>
	<g>
		<path d="M45.8,26.2l5.1-5.1L45.8,26.2c11.8,11.7,19,27.9,19,45.7H72C72,32.2,39.7,0.1-0.2,0.1h0v7.2C17.7,7.3,34,14.5,45.8,26.2"
			/>
		<path d="M50.3,71.9h7.2c0-15.9-6.5-30.2-16.9-40.6l-5.1,5.1C44.7,45.5,50.3,58,50.3,71.9"/>
		<path d="M-0.2,14.5v7.2c14,0,26.6,5.6,35.7,14.7l5.1-5.1C30.2,20.9,15.8,14.5-0.2,14.5L-0.2,14.5z"/>
		<path d="M35.9,71.9h7.2c0-11.9-4.8-22.7-12.7-30.5l-5.1,5.1C31.9,53,35.9,62,35.9,71.9"/>
		<path d="M25.3,46.5l5.1-5.1c-7.8-7.8-18.7-12.6-30.6-12.6V36C9.8,36,18.8,40,25.3,46.5"/>
		<path d="M21.5,71.9h7.2c0-7.9-3.2-15.1-8.5-20.3l-5.1,5.1C19,60.6,21.5,66,21.5,71.9"/>
		<path d="M15.1,56.7l5.1-5.1C15,46.4,7.8,43.2-0.2,43.2v7.2C5.8,50.4,11.2,52.8,15.1,56.7"/>
		<path d="M-0.2,64.7c2,0,3.8,0.8,5.1,2.1l5.1-5.1c-2.6-2.6-6.2-4.2-10.2-4.2L-0.2,64.7L-0.2,64.7z"/>
		<path d="M7,71.9L7,71.9h7.2c0-4-1.6-7.6-4.2-10.2l-5.1,5.1C6.2,68.1,7,69.9,7,71.9"/>
	</g>
</g>
</svg>
