<?xml version="1.0" encoding="utf-8"?>
<!-- Generator: Adobe Illustrator 21.1.0, SVG Export Plug-In . SVG Version: 6.00 Build 0)  -->
<svg version="1.1" id="Calque_1" xmlns="http://www.w3.org/2000/svg" xmlns:xlink="http://www.w3.org/1999/xlink" x="0px" y="0px"
	 width="72px" height="72px" viewBox="0 0 72 72" enable-background="new 0 0 72 72" xml:space="preserve">
<rect x="36" y="35.8" width="4.5" height="4.5"/>
<rect x="40.5" y="40.3" width="4.5" height="4.5"/>
<rect x="45" y="35.8" width="4.5" height="4.5"/>
<rect x="36" y="44.8" width="4.5" height="4.5"/>
<rect x="40.5" y="49.3" width="4.5" height="4.5"/>
<rect x="45" y="44.8" width="4.5" height="4.5"/>
<rect x="36" y="53.8" width="4.5" height="4.5"/>
<rect x="40.5" y="58.2" width="4.5" height="4.5"/>
<rect x="45" y="53.8" width="4.5" height="4.5"/>
<rect x="36" y="62.7" width="4.5" height="4.5"/>
<rect x="40.5" y="67.2" width="4.5" height="4.5"/>
<rect x="45" y="62.7" width="4.5" height="4.5"/>
<rect x="49.5" y="40.3" width="4.5" height="4.5"/>
<rect x="54" y="35.8" width="4.5" height="4.5"/>
<rect x="49.5" y="49.3" width="4.5" height="4.5"/>
<rect x="54" y="44.8" width="4.5" height="4.5"/>
<rect x="49.5" y="58.2" width="4.5" height="4.5"/>
<rect x="54" y="53.8" width="4.5" height="4.5"/>
<rect x="49.5" y="67.2" width="4.5" height="4.5"/>
<rect x="54" y="62.7" width="4.5" height="4.5"/>
<rect x="58.5" y="40.3" width="4.5" height="4.5"/>
<rect x="63" y="35.8" width="4.5" height="4.5"/>
<rect x="58.5" y="49.3" width="4.5" height="4.5"/>
<rect x="63" y="44.8" width="4.5" height="4.5"/>
<rect x="58.5" y="58.2" width="4.5" height="4.5"/>
<rect x="63" y="53.8" width="4.5" height="4.5"/>
<rect x="58.5" y="67.2" width="4.5" height="4.5"/>
<rect x="63" y="62.7" width="4.5" height="4.5"/>
<rect x="67.5" y="40.3" width="4.5" height="4.5"/>
<rect x="67.5" y="49.3" width="4.5" height="4.5"/>
<rect x="67.5" y="58.2" width="4.5" height="4.5"/>
<rect x="67.5" y="67.2" width="4.5" height="4.5"/>
<rect x="36" y="-0.2" width="4.5" height="4.5"/>
<rect x="40.5" y="4.3" width="4.5" height="4.5"/>
<rect x="45" y="-0.2" width="4.5" height="4.5"/>
<rect x="36" y="8.8" width="4.5" height="4.5"/>
<rect x="40.5" y="13.3" width="4.5" height="4.5"/>
<rect x="45" y="8.8" width="4.5" height="4.5"/>
<rect x="36" y="17.8" width="4.5" height="4.5"/>
<rect x="40.5" y="22.3" width="4.5" height="4.5"/>
<rect x="45" y="17.8" width="4.5" height="4.5"/>
<rect x="36" y="26.8" width="4.5" height="4.5"/>
<rect x="40.5" y="31.3" width="4.5" height="4.5"/>
<rect x="45" y="26.8" width="4.5" height="4.5"/>
<rect x="49.5" y="4.3" width="4.5" height="4.5"/>
<rect x="54" y="-0.2" width="4.5" height="4.5"/>
<rect x="49.5" y="13.3" width="4.5" height="4.5"/>
<rect x="54" y="8.8" width="4.5" height="4.5"/>
<rect x="49.5" y="22.3" width="4.5" height="4.5"/>
<rect x="54" y="17.8" width="4.5" height="4.5"/>
<rect x="49.5" y="31.3" width="4.5" height="4.5"/>
<rect x="54" y="26.8" width="4.5" height="4.5"/>
<rect x="58.5" y="4.3" width="4.5" height="4.5"/>
<rect x="63" y="-0.2" width="4.5" height="4.5"/>
<rect x="58.5" y="13.3" width="4.5" height="4.5"/>
<rect x="63" y="8.8" width="4.5" height="4.5"/>
<rect x="58.5" y="22.3" width="4.5" height="4.5"/>
<rect x="63" y="17.8" width="4.5" height="4.5"/>
<rect x="58.5" y="31.3" width="4.5" height="4.5"/>
<rect x="63" y="26.8" width="4.5" height="4.5"/>
<rect x="67.5" y="4.3" width="4.5" height="4.5"/>
<rect x="67.5" y="13.3" width="4.5" height="4.5"/>
<rect x="67.5" y="22.3" width="4.5" height="4.5"/>
<rect x="67.5" y="31.3" width="4.5" height="4.5"/>
<rect y="35.8" width="4.5" height="4.5"/>
<rect x="4.5" y="40.3" width="4.5" height="4.5"/>
<rect x="9" y="35.8" width="4.5" height="4.5"/>
<rect y="44.8" width="4.5" height="4.5"/>
<rect x="4.5" y="49.3" width="4.5" height="4.5"/>
<rect x="9" y="44.8" width="4.5" height="4.5"/>
<rect y="53.8" width="4.5" height="4.5"/>
<rect x="4.5" y="58.2" width="4.5" height="4.5"/>
<rect x="9" y="53.8" width="4.5" height="4.5"/>
<rect y="62.7" width="4.5" height="4.5"/>
<rect x="4.5" y="67.2" width="4.5" height="4.5"/>
<rect x="9" y="62.7" width="4.5" height="4.5"/>
<rect x="13.5" y="40.3" width="4.5" height="4.5"/>
<rect x="18" y="35.8" width="4.5" height="4.5"/>
<rect x="13.5" y="49.3" width="4.5" height="4.5"/>
<rect x="18" y="44.8" width="4.5" height="4.5"/>
<rect x="13.5" y="58.2" width="4.5" height="4.5"/>
<rect x="18" y="53.8" width="4.5" height="4.5"/>
<rect x="13.5" y="67.2" width="4.5" height="4.5"/>
<rect x="18" y="62.7" width="4.5" height="4.5"/>
<rect x="22.5" y="40.3" width="4.5" height="4.5"/>
<rect x="27" y="35.8" width="4.5" height="4.5"/>
<rect x="22.5" y="49.3" width="4.5" height="4.5"/>
<rect x="27" y="44.8" width="4.5" height="4.5"/>
<rect x="22.5" y="58.2" width="4.5" height="4.5"/>
<rect x="27" y="53.8" width="4.5" height="4.5"/>
<rect x="22.5" y="67.2" width="4.5" height="4.5"/>
<rect x="27" y="62.7" width="4.5" height="4.5"/>
<rect x="31.5" y="40.3" width="4.5" height="4.5"/>
<rect x="31.5" y="49.3" width="4.5" height="4.5"/>
<rect x="31.5" y="58.2" width="4.5" height="4.5"/>
<rect x="31.5" y="67.2" width="4.5" height="4.5"/>
<rect y="-0.2" width="4.5" height="4.5"/>
<rect x="4.5" y="4.3" width="4.5" height="4.5"/>
<rect x="9" y="-0.2" width="4.5" height="4.5"/>
<rect y="8.8" width="4.5" height="4.5"/>
<rect x="4.5" y="13.3" width="4.5" height="4.5"/>
<rect x="9" y="8.8" width="4.5" height="4.5"/>
<rect y="17.8" width="4.5" height="4.5"/>
<rect x="4.5" y="22.3" width="4.5" height="4.5"/>
<rect x="9" y="17.8" width="4.5" height="4.5"/>
<rect y="26.8" width="4.5" height="4.5"/>
<rect x="4.5" y="31.3" width="4.5" height="4.5"/>
<rect x="9" y="26.8" width="4.5" height="4.5"/>
<rect x="13.5" y="4.3" width="4.5" height="4.5"/>
<rect x="18" y="-0.2" width="4.5" height="4.5"/>
<rect x="13.5" y="13.3" width="4.5" height="4.5"/>
<rect x="18" y="8.8" width="4.5" height="4.5"/>
<rect x="13.5" y="22.3" width="4.5" height="4.5"/>
<rect x="18" y="17.8" width="4.5" height="4.5"/>
<rect x="13.5" y="31.3" width="4.5" height="4.5"/>
<rect x="18" y="26.8" width="4.5" height="4.5"/>
<rect x="22.5" y="4.3" width="4.5" height="4.5"/>
<rect x="27" y="-0.2" width="4.5" height="4.5"/>
<rect x="22.5" y="13.3" width="4.5" height="4.5"/>
<rect x="27" y="8.8" width="4.5" height="4.5"/>
<rect x="22.5" y="22.3" width="4.5" height="4.5"/>
<rect x="27" y="17.8" width="4.5" height="4.5"/>
<rect x="22.5" y="31.3" width="4.5" height="4.5"/>
<rect x="27" y="26.8" width="4.5" height="4.5"/>
<rect x="31.5" y="4.3" width="4.5" height="4.5"/>
<rect x="31.5" y="13.3" width="4.5" height="4.5"/>
<rect x="31.5" y="22.3" width="4.5" height="4.5"/>
<rect x="31.5" y="31.3" width="4.5" height="4.5"/>
</svg>
