<?xml version="1.0" encoding="utf-8"?>
<!-- Generator: Adobe Illustrator 21.1.0, SVG Export Plug-In . SVG Version: 6.00 Build 0)  -->
<svg version="1.1" id="Calque_1" xmlns="http://www.w3.org/2000/svg" xmlns:xlink="http://www.w3.org/1999/xlink" x="0px" y="0px"
	 width="72px" height="72px" viewBox="0 0 72 72" enable-background="new 0 0 72 72" xml:space="preserve">
<g>
	<g>
		<g>
			<g>
				<path d="M18,18.1c9.9,0,18,13,18,17.9c0-9.9-8.1-36-18-36C8.1,0,0,26.1,0,36C0,31.1,8.1,18.1,18,18.1"/>
			</g>
		</g>
		<g>
			<g>
				<path d="M54,53.9c-9.9,0-18-13-18-17.9c0,9.9,8.1,36,18,36c9.9,0,18-26.1,18-36C72,40.9,63.9,53.9,54,53.9"/>
			</g>
		</g>
		<g>
			<g>
				<path d="M53.9,18c0,9.9-13,18-17.9,18c9.9,0,36-8.1,36-18C72,8.1,45.9,0,36,0C40.9,0,53.9,8.1,53.9,18"/>
			</g>
		</g>
		<g>
			<g>
				<path d="M18.1,54c0-9.9,13-18,17.9-18c-9.9,0-36,8.1-36,18c0,9.9,26.1,18,36,18C31.1,72,18.1,63.9,18.1,54"/>
			</g>
		</g>
	</g>
</g>
</svg>
