<?xml version="1.0" encoding="utf-8"?>
<!-- Generator: Adobe Illustrator 21.1.0, SVG Export Plug-In . SVG Version: 6.00 Build 0)  -->
<svg version="1.1" id="Calque_1" xmlns="http://www.w3.org/2000/svg" xmlns:xlink="http://www.w3.org/1999/xlink" x="0px" y="0px"
	 width="72px" height="72px" viewBox="0 0 72 72" enable-background="new 0 0 72 72" xml:space="preserve">
<g>
	<path d="M30.5,30.5C38.4,22.7,43.2,11.9,43.2,0H28.8v0c0,8-3.2,15.2-8.4,20.4C15.2,25.6,8,28.8,0,28.8V36v7.2
		C12,43.2,22.7,38.4,30.5,30.5L30.5,30.5z"/>
	<path d="M65,0h-7.4c0,15.9-6.4,30.3-16.9,40.7l0,0C30.3,51.2,16,57.6,0,57.6V72c20,0,37.9-8.1,50.9-21.1l0,0l0,0c0,0,0,0,0,0l0,0
		C63.9,37.9,72,19.9,72,0h-7.2H65"/>
</g>
</svg>
