<?xml version="1.0" encoding="utf-8"?>
<!-- Generator: Adobe Illustrator 21.1.0, SVG Export Plug-In . SVG Version: 6.00 Build 0)  -->
<svg version="1.1" id="Calque_1" xmlns="http://www.w3.org/2000/svg" xmlns:xlink="http://www.w3.org/1999/xlink" x="0px" y="0px"
	 width="72px" height="72px" viewBox="0 0 72 72" enable-background="new 0 0 72 72" xml:space="preserve">
<g>
	<path d="M18,9.1c9.9,0,18,19.5,18,26.9c0-9.9-8.1-36-18-36C8.1,0,0,26.1,0,36C0,28.6,8.1,9.1,18,9.1"/>
	<path d="M54,62.9c-9.9,0-18-19.5-18-26.9c0,9.9,8.1,36,18,36c9.9,0,18-26.1,18-36C72,43.4,63.9,62.9,54,62.9"/>
	<path d="M62.9,18c0,9.9-19.5,18-26.9,18c9.9,0,36-8.1,36-18C72,8.1,45.9,0,36,0C43.4,0,62.9,8.1,62.9,18"/>
	<path d="M9.1,54c0-9.9,19.5-18,26.9-18c-9.9,0-36,8.1-36,18c0,9.9,26.1,18,36,18C28.6,72,9.1,63.9,9.1,54"/>
	<path d="M18,18.1c-9.9,0-18,13-18,17.9c0-2.5,8.1-8.9,18-8.9c9.9,0,18,6.5,18,8.9C36,31.1,27.9,18.1,18,18.1"/>
	<path d="M54,53.9c9.9,0,18-13,18-17.9c0,2.5-8.1,8.9-18,8.9c-9.9,0-18-6.5-18-8.9C36,40.9,44.1,53.9,54,53.9"/>
	<path d="M53.9,18c0-9.9-13-18-17.9-18c2.5,0,8.9,8.1,8.9,18c0,9.9-6.5,18-8.9,18C40.9,36,53.9,27.9,53.9,18"/>
	<path d="M18.1,54c0,9.9,13,18,17.9,18c-2.5,0-8.9-8.1-8.9-18c0-9.9,6.5-18,8.9-18C31.1,36,18.1,44.1,18.1,54"/>
</g>
</svg>
