<?xml version="1.0" encoding="utf-8"?>
<!-- Generator: Adobe Illustrator 21.1.0, SVG Export Plug-In . SVG Version: 6.00 Build 0)  -->
<svg version="1.1" id="Calque_1" xmlns="http://www.w3.org/2000/svg" xmlns:xlink="http://www.w3.org/1999/xlink" x="0px" y="0px"
	 width="72px" height="72px" viewBox="0 0 72 72" enable-background="new 0 0 72 72" xml:space="preserve">
<path d="M28.8-0.5l-7.2,0l-7.2,0v0c0,15.9,6.5,30.3,16.9,40.7l5.1-5.1l5.1-5.1C33.6,22.3,28.8,11.5,28.8-0.5z"/>
<path d="M72,28.3l0-28.8l-5.1,5.1c0,0,0,0,0,0l-5.1,5.1c-2.6-2.6-4.2-6.2-4.2-10.2l-14.4,0c0,8,3.2,15.1,8.5,20.4l0,0
	C56.8,25.1,64,28.3,72,28.3z"/>
</svg>
