<?xml version="1.0" encoding="utf-8"?>
<!-- Generator: Adobe Illustrator 21.1.0, SVG Export Plug-In . SVG Version: 6.00 Build 0)  -->
<svg version="1.1" id="Calque_1" xmlns="http://www.w3.org/2000/svg" xmlns:xlink="http://www.w3.org/1999/xlink" x="0px" y="0px"
	 width="72px" height="72px" viewBox="0 0 72 72" enable-background="new 0 0 72 72" xml:space="preserve">
<g>
	<g>
		<path d="M26.2,45.8l-5.1,5.1L26.2,45.8c-11.8-11.7-19-27.9-19-45.7H0c0,39.7,32.3,71.8,72.2,71.8h0v-7.2
			C54.2,64.7,38,57.5,26.2,45.8"/>
		<path d="M21.6,0.1h-7.2c0,15.9,6.5,30.2,16.9,40.6l5.1-5.1C27.3,26.5,21.6,14,21.6,0.1"/>
		<path d="M72.2,57.5v-7.2c-14,0-26.6-5.6-35.7-14.7l-5.1,5.1C41.8,51.1,56.2,57.5,72.2,57.5L72.2,57.5z"/>
		<path d="M36.1,0.1h-7.2c0,11.9,4.8,22.7,12.7,30.5l5.1-5.1C40.1,19,36.1,10,36.1,0.1"/>
		<path d="M46.6,25.5l-5.1,5.1c7.8,7.8,18.7,12.6,30.6,12.6V36C62.2,36,53.2,32,46.6,25.5"/>
		<path d="M50.5,0.1h-7.2c0,7.9,3.2,15.1,8.5,20.3l5.1-5.1C52.9,11.4,50.5,6,50.5,0.1"/>
		<path d="M56.9,15.3l-5.1,5.1c5.2,5.2,12.4,8.4,20.4,8.4v-7.2C66.2,21.6,60.8,19.2,56.9,15.3"/>
		<path d="M72.2,7.3c-2,0-3.8-0.8-5.1-2.1L62,10.3c2.6,2.6,6.2,4.2,10.2,4.2L72.2,7.3L72.2,7.3z"/>
		<path d="M64.9,0.1L64.9,0.1h-7.2c0,4,1.6,7.6,4.2,10.2l5.1-5.1C65.8,3.9,64.9,2.1,64.9,0.1"/>
	</g>
</g>
</svg>
