<?xml version="1.0" encoding="utf-8"?>
<!-- Generator: Adobe Illustrator 21.1.0, SVG Export Plug-In . SVG Version: 6.00 Build 0)  -->
<svg version="1.1" id="Calque_1" xmlns="http://www.w3.org/2000/svg" xmlns:xlink="http://www.w3.org/1999/xlink" x="0px" y="0px"
	 width="72px" height="72px" viewBox="0 0 72 72" enable-background="new 0 0 72 72" xml:space="preserve">
<g>
	<g>
		<path d="M49.1,68.2c0,0,0.1,0,0.1,0C49.2,68.2,49.1,68.2,49.1,68.2"/>
		<path d="M3.7,22.7c0,0,0,0.1,0,0.1C3.7,22.8,3.7,22.8,3.7,22.7"/>
		<path d="M45.9,67C46,67,46,67.1,45.9,67C46,67.1,46,67,45.9,67"/>
	</g>
	<path d="M42.9,65.8L42.9,65.8L42.9,65.8z"/>
	<path d="M2.7,19.5l0,0.1L2.7,19.5z"/>
	<g>
		<path d="M4.9,25.9C4.9,25.9,4.9,26,4.9,25.9C4.9,26,4.9,25.9,4.9,25.9"/>
		<g>
			<g>
				<path d="M24.6,47.3c11,14.4,27,23.7,44.9,24.5c-1.2,0-2.3-0.1-3.5-0.2c0,0-0.1,0-0.1,0c-1.1-0.1-2.2-0.2-3.4-0.4
					c0,0-0.1,0-0.1,0c-1.1-0.1-2.2-0.3-3.3-0.5c-0.1,0-0.1,0-0.2,0c-1.1-0.2-2.1-0.4-3.2-0.7c-0.1,0-0.1,0-0.2,0
					c-1.1-0.2-2.1-0.5-3.1-0.8c-0.1,0-0.1,0-0.2,0c-1-0.3-2.1-0.6-3.1-1c0,0-0.1,0-0.1,0c-1-0.3-2.1-0.7-3.1-1.1c0,0-0.1,0-0.1,0
					c-1-0.4-2-0.8-3.1-1.3l0,0c-17.4-7.7-31.1-22-38-39.8c0,0,0,0,0-0.1c-0.4-1-0.8-2-1.1-3.1c0,0,0-0.1,0-0.1c-0.3-1-0.7-2.1-1-3.1
					l0-0.2c-0.3-1-0.6-2.1-0.8-3.2l0-0.2c-0.2-1.1-0.5-2.1-0.7-3.2c0-0.1,0-0.1,0-0.2C1,11.7,0.8,10.6,0.7,9.5c0,0,0-0.1,0-0.1
					C0.5,8.3,0.4,7.1,0.3,6c0,0,0,0,0-0.1C0.2,4.8,0.1,3.6,0.1,2.5C0.9,20.3,10.2,36.3,24.6,47.3"/>
			</g>
		</g>
		<g>
			<g>
				<path d="M13.3,25.9c1,3,2.2,5.9,3.5,8.6C6.3,25.2,0,13.1,0-0.1C0,9.6,4.9,18.6,13.3,25.9"/>
			</g>
		</g>
		<path d="M10.2,13.8c0.3,1.9,0.7,3.7,1.2,5.5C4.2,13.7,0,7.1,0-0.1C0,5,3.7,9.7,10.2,13.8"/>
		<path d="M9.1,4.3c0.1,1.5,0.2,3,0.4,4.5C3.5,6.2,0,3.2,0-0.1C0,1.5,3.3,3,9.1,4.3"/>
		<g>
			<g>
				<path d="M37.4,55.2c-4.6-2.2-8.9-4.8-12.8-7.8c-3-3.9-5.6-8.2-7.8-12.8c3.6,3.2,7.6,6.1,12,8.6C31.3,47.6,34.2,51.6,37.4,55.2"
					/>
			</g>
		</g>
		<g>
			<g>
				<path d="M24.3,33.6c-4.1-2.3-7.8-4.9-11-7.7c-0.7-2.2-1.4-4.4-1.9-6.6c2.9,2.3,6.4,4.4,10.2,6.3C22.3,28.4,23.2,31,24.3,33.6"/>
			</g>
		</g>
		<g>
			<g>
				<path d="M19.8,18.5c-3.7-1.4-6.9-3-9.7-4.8c-0.3-1.6-0.5-3.3-0.7-4.9c2.6,1.1,5.7,2.2,9.3,3.2C19.1,14.2,19.4,16.4,19.8,18.5"/>
			</g>
		</g>
		<g>
			<g>
				<path d="M18.2,5.9c-3.5-0.5-6.5-1-9.1-1.6C9.1,2.9,9,1.4,9-0.1c2.5,0,5.6,0,9,0C18,2,18.1,3.9,18.2,5.9"/>
			</g>
		</g>
		<path d="M37.4,55.2c2.8,1.3,5.6,2.5,8.6,3.5c7.3,8.3,16.3,13.2,26,13.2C58.8,71.9,46.8,65.6,37.4,55.2"/>
		<g>
			<g>
				<path d="M38.3,47.7c-3.3-1.3-6.5-2.8-9.5-4.5c-1.7-3-3.2-6.2-4.5-9.5c3,1.7,6.2,3.1,9.6,4.5C35.2,41.5,36.7,44.7,38.3,47.7"/>
			</g>
		</g>
		<g>
			<g>
				<path d="M31,29.5c-3.4-1.2-6.5-2.5-9.4-3.9c-0.7-2.3-1.2-4.7-1.7-7.1c2.8,1.1,5.9,2.2,9.3,3.1C29.6,24.3,30.3,26.9,31,29.5"/>
			</g>
		</g>
		<g>
			<g>
				<path d="M27.9,14.2c-3.3-0.6-6.3-1.3-9.1-2.1c-0.3-2-0.4-4.1-0.6-6.1C21,6.3,24,6.7,27.2,7C27.4,9.4,27.6,11.8,27.9,14.2"/>
			</g>
		</g>
		<g>
			<g>
				<path d="M46.3,50.4c1.9,3.9,4,7.3,6.3,10.2c-2.3-0.6-4.5-1.2-6.6-1.9c-2.8-3.2-5.4-6.9-7.7-11C40.9,48.7,43.6,49.6,46.3,50.4"/>
			</g>
		</g>
		<g>
			<g>
				<path d="M42.4,40.9c-3-0.8-5.8-1.8-8.6-2.9c-1.1-2.7-2-5.6-2.9-8.6c2.8,1,5.8,1.8,8.8,2.6C40.6,35.2,41.4,38.1,42.4,40.9"/>
			</g>
		</g>
		<g>
			<g>
				<path d="M38,23.7c-3.1-0.6-6.1-1.3-8.9-2.1c-0.5-2.4-0.9-4.9-1.2-7.5c2.8,0.5,5.8,1,9,1.5C37.2,18.4,37.6,21.1,38,23.7"/>
			</g>
		</g>
		<g>
			<g>
				<path d="M36.2,7.7c-3.2-0.2-6.2-0.5-9-0.8c-0.1-2.3-0.2-4.7-0.2-7c2.8,0,5.8,0,9,0C36,2.6,36.1,5.2,36.2,7.7"/>
			</g>
		</g>
		<path d="M52.6,60.6c1.8,0.4,3.7,0.8,5.5,1.1c4,6.5,8.8,10.2,13.8,10.2C64.9,71.9,58.2,67.8,52.6,60.6"/>
		<g>
			<g>
				<path d="M50.3,42.8c0.9,3.3,2,6.4,3.1,9.3c-2.4-0.5-4.8-1.1-7.1-1.7c-1.4-2.9-2.7-6.1-3.9-9.4C45,41.7,47.6,42.3,50.3,42.8"/>
			</g>
		</g>
		<g>
			<g>
				<path d="M48.2,33.9c-2.9-0.5-5.7-1.1-8.4-1.8c-0.7-2.7-1.3-5.5-1.8-8.4c2.8,0.6,5.7,1.1,8.7,1.5C47.1,28.2,47.6,31.1,48.2,33.9"
					/>
			</g>
		</g>
		<g>
			<g>
				<path d="M45.7,16.7c-3.1-0.3-6-0.7-8.9-1c-0.3-2.6-0.5-5.2-0.7-7.9c2.9,0.2,5.9,0.4,9,0.5C45.3,11.1,45.5,13.9,45.7,16.7"/>
			</g>
		</g>
		<g>
			<g>
				<path d="M59.9,53.1c1,3.5,2,6.6,3.2,9.3c-1.7-0.2-3.3-0.4-4.9-0.7c-1.7-2.7-3.3-6-4.8-9.7C55.5,52.5,57.7,52.9,59.9,53.1"/>
			</g>
		</g>
		<g>
			<g>
				<path d="M56.3,35.1c0.4,3.2,0.9,6.2,1.5,9c-2.5-0.3-5-0.7-7.5-1.2c-0.8-2.8-1.5-5.8-2.1-8.9C50.8,34.4,53.5,34.8,56.3,35.1"/>
			</g>
		</g>
		<g>
			<g>
				<path d="M55.2,26.2c-2.9-0.3-5.8-0.6-8.5-1c-0.4-2.8-0.7-5.6-1-8.5c2.8,0.3,5.8,0.5,8.8,0.7C54.7,20.4,55,23.3,55.2,26.2"/>
			</g>
		</g>
		<g>
			<g>
				<path d="M54.1,8.7c-3.1-0.1-6.1-0.2-8.9-0.4C45.1,5.5,45,2.8,45-0.1h9C54,2.9,54,5.8,54.1,8.7"/>
			</g>
		</g>
		<path d="M63.1,62.4c1.5,0.2,3,0.3,4.5,0.4c1.3,5.8,2.8,9.1,4.4,9.1C68.7,71.9,65.7,68.5,63.1,62.4"/>
		<g>
			<g>
				<path d="M65,44.7c0.3,3.2,0.7,6.3,1.1,9c-2.1-0.1-4.1-0.3-6.1-0.6c-0.8-2.8-1.5-5.8-2.1-9.1C60.1,44.3,62.5,44.6,65,44.7"/>
			</g>
		</g>
		<g>
			<g>
				<path d="M63.6,26.7c0.2,3.1,0.3,6.1,0.5,9c-2.7-0.1-5.3-0.4-7.9-0.7c-0.4-2.8-0.7-5.8-1-8.9C58,26.4,60.8,26.6,63.6,26.7"/>
			</g>
		</g>
		<g>
			<g>
				<path d="M63.3,17.8c-3-0.1-5.9-0.2-8.7-0.4c-0.2-2.8-0.3-5.8-0.4-8.7C57,8.7,60,8.8,63.1,8.9C63.1,11.9,63.2,14.9,63.3,17.8"/>
			</g>
		</g>
		<path d="M72,53.9v9c-1.5,0-2.9-0.1-4.4-0.1c-0.6-2.6-1.1-5.6-1.6-9.1C68,53.8,70,53.9,72,53.9"/>
		<g>
			<g>
				<path d="M72,35.9v9c-2.4,0-4.7-0.1-7-0.2c-0.3-2.8-0.5-5.8-0.8-9C66.8,35.9,69.4,35.9,72,35.9"/>
			</g>
		</g>
		<g>
			<g>
				<path d="M72,17.9v9c-2.8,0-5.6-0.1-8.3-0.2c-0.1-2.9-0.3-5.9-0.4-8.9C66.1,17.9,69,17.9,72,17.9"/>
			</g>
		</g>
		<g>
			<g>
				<path d="M72,8.9c-3,0-6,0-8.9-0.1C63,5.9,63,3,63-0.1h9V8.9z"/>
			</g>
		</g>
	</g>
</g>
</svg>
