<?xml version="1.0" encoding="utf-8"?>
<!-- Generator: Adobe Illustrator 21.1.0, SVG Export Plug-In . SVG Version: 6.00 Build 0)  -->
<svg version="1.1" id="Calque_1" xmlns="http://www.w3.org/2000/svg" xmlns:xlink="http://www.w3.org/1999/xlink" x="0px" y="0px"
	 width="72px" height="72px" viewBox="0 0 72 72" enable-background="new 0 0 72 72" xml:space="preserve">
<g>
	<g>
		<g>
			<g>
				<path d="M36,35.9L36,35.9c0-2.5-8.1-8.9-18-8.9c-9.9,0-18,6.5-18,8.9H36z"/>
			</g>
		</g>
		<g>
			<g>
				<path d="M36,36L36,36c0,2.5,8.1,8.9,18,8.9c9.9,0,18-6.5,18-8.9H36z"/>
			</g>
		</g>
		<g>
			<g>
				<path d="M36,35.9L36,35.9c2.5,0,8.9-8.1,8.9-18s-6.5-18-8.9-18V35.9z"/>
			</g>
		</g>
		<g>
			<g>
				<path d="M36,35.9L36,35.9c-2.5,0-8.9,8.1-8.9,18c0,9.9,6.5,18,8.9,18V35.9z"/>
			</g>
		</g>
	</g>
</g>
</svg>
