<?xml version="1.0" encoding="utf-8"?>
<!-- Generator: Adobe Illustrator 21.1.0, SVG Export Plug-In . SVG Version: 6.00 Build 0)  -->
<svg version="1.1" id="Calque_1" xmlns="http://www.w3.org/2000/svg" xmlns:xlink="http://www.w3.org/1999/xlink" x="0px" y="0px"
	 width="72px" height="72px" viewBox="0 0 72 72" enable-background="new 0 0 72 72" xml:space="preserve">
<g>
	<path d="M0,72c0-0.5,0-1,0-1.5c0-0.5,0-0.9,0-1.4c0-0.5,0.1-1,0.1-1.5c0-0.5,0-0.9,0.1-1.4c0-0.5,0.1-1,0.1-1.5
		c0-0.4,0.1-0.9,0.1-1.3c0.1-0.5,0.1-1,0.2-1.5c0.1-0.4,0.1-0.9,0.2-1.3c0.1-0.5,0.2-1,0.3-1.5c0.1-0.4,0.1-0.9,0.2-1.3
		c0.1-0.5,0.2-1,0.3-1.5C1.8,56,1.9,55.6,2,55.1c0.1-0.5,0.3-1,0.4-1.5c0.1-0.4,0.2-0.8,0.3-1.2c0.1-0.5,0.3-1,0.5-1.5
		c0.1-0.4,0.2-0.8,0.3-1.1c0.2-0.5,0.3-1,0.5-1.5c0.1-0.4,0.2-0.7,0.4-1.1c0.2-0.5,0.4-1,0.6-1.5c0.1-0.4,0.3-0.7,0.4-1.1
		c0.2-0.5,0.4-1,0.6-1.5c0.2-0.3,0.3-0.7,0.4-1c0.2-0.5,0.5-1,0.7-1.5c0.2-0.3,0.3-0.7,0.5-1c0.2-0.5,0.5-1,0.8-1.5
		c0.2-0.3,0.3-0.6,0.5-0.9c0.3-0.5,0.6-1,0.9-1.5c0.2-0.3,0.3-0.6,0.5-0.9c0.3-0.5,0.6-1,0.9-1.4c0.2-0.3,0.4-0.6,0.5-0.8
		c0.3-0.5,0.6-0.9,1-1.4c0.2-0.3,0.4-0.5,0.6-0.8c0.4-0.5,0.7-1,1.1-1.5c0.2-0.2,0.3-0.5,0.5-0.7c0.4-0.5,0.7-0.9,1.1-1.4
		c0.2-0.2,0.4-0.5,0.5-0.7c0.4-0.5,0.8-1,1.2-1.4c0.2-0.2,0.3-0.4,0.5-0.6c0.4-0.5,0.9-1,1.3-1.4c0.2-0.2,0.3-0.4,0.5-0.5
		c0.5-0.5,1-1,1.4-1.4c0.2-0.2,0.3-0.3,0.5-0.5c0.5-0.5,1-0.9,1.5-1.4c0.2-0.1,0.3-0.3,0.5-0.4c0.5-0.5,1-0.9,1.6-1.4
		c0.2-0.1,0.3-0.3,0.5-0.4c0.6-0.5,1.1-0.9,1.7-1.4c0.1-0.1,0.2-0.2,0.4-0.3c0.6-0.5,1.2-0.9,1.9-1.4c0.1-0.1,0.2-0.1,0.3-0.2
		c0.6-0.4,1.2-0.8,1.8-1.2c0.2-0.1,0.3-0.2,0.5-0.3c0.6-0.4,1.2-0.8,1.8-1.2c0.1-0.1,0.3-0.2,0.4-0.3c0.7-0.4,1.4-0.8,2.1-1.2
		c0.1-0.1,0.2-0.1,0.3-0.2c0.8-0.4,1.5-0.8,2.3-1.2c0,0,0,0,0.1,0c0.7-0.4,1.5-0.7,2.2-1.1c0.1,0,0.2-0.1,0.2-0.1
		c1.6-0.8,3.3-1.5,5-2.1c1.8-0.7,3.6-1.2,5.4-1.8c0,0,0.1,0,0.1,0C58.7,0.9,65.2,0,72,0v72H0z"/>
</g>
</svg>
