<?xml version="1.0" encoding="utf-8"?>
<!-- Generator: Adobe Illustrator 21.1.0, SVG Export Plug-In . SVG Version: 6.00 Build 0)  -->
<svg version="1.1" id="Calque_1" xmlns="http://www.w3.org/2000/svg" xmlns:xlink="http://www.w3.org/1999/xlink" x="0px" y="0px"
	 width="72px" height="72px" viewBox="0 0 72 72" enable-background="new 0 0 72 72" xml:space="preserve">
<g>
	<path d="M31,31.3l-5.1-5.1c-11.8,11.7-19,27.9-19,45.7v0h7.2C14.1,56,20.5,41.7,31,31.3"/>
	<path d="M71.8,14.5V7.3c-17.9,0-34.2,7.2-45.9,18.9l5.1,5.1C41.4,20.9,55.9,14.5,71.8,14.5"/>
	<path d="M41.2,41.4l-5.1-5.1C26.9,45.5,21.3,58,21.3,71.9h7.2C28.5,60,33.3,49.2,41.2,41.4"/>
	<path d="M36.1,36.4l5.1,5.1c7.8-7.8,18.7-12.6,30.6-12.6v-7.2C57.9,21.6,45.2,27.3,36.1,36.4"/>
	<path d="M42.9,71.9c0-7.9,3.2-15.1,8.5-20.3l-5.1-5.1C39.8,53,35.7,62,35.7,71.9L42.9,71.9L42.9,71.9z"/>
	<path d="M71.8,43.2V36c-10,0-19,4-25.5,10.5l5.1,5.1C56.6,46.4,63.8,43.2,71.8,43.2"/>
	<path d="M71.8,57.5v-7.2c-6,0-11.4,2.4-15.3,6.3l5.1,5.1C64.2,59.1,67.8,57.5,71.8,57.5"/>
	<path d="M61.6,61.7l-5.1-5.1c-3.9,3.9-6.3,9.3-6.3,15.2h7.2C57.4,67.9,59,64.3,61.6,61.7"/>
	<path d="M66.7,66.8c-1.3,1.3-2.1,3.1-2.1,5.1h7.2L66.7,66.8z"/>
	<path d="M71.8,64.7c-2,0-3.8,0.8-5.1,2.1l5.1,5.1V64.7z"/>
</g>
</svg>
