<?xml version="1.0" encoding="utf-8"?>
<!-- Generator: Adobe Illustrator 21.1.0, SVG Export Plug-In . SVG Version: 6.00 Build 0)  -->
<svg version="1.1" id="Calque_1" xmlns="http://www.w3.org/2000/svg" xmlns:xlink="http://www.w3.org/1999/xlink" x="0px" y="0px"
	 width="72px" height="72px" viewBox="0 0 72 72" enable-background="new 0 0 72 72" xml:space="preserve">
<polygon points="0,54 0,72 9,54 "/>
<polygon points="54,54 45,72 54,72 63,54 "/>
<polygon points="18,54 9,72 18,72 27,54 "/>
<polygon points="36,54 27,72 36,72 45,54 "/>
<polygon points="0,36 0,54 9,36 "/>
<polygon points="45,54 54,54 63,36 54,36 "/>
<polygon points="63,72 72,72 72,54 "/>
<polygon points="63,54 72,54 72,36 "/>
<polygon points="9,54 18,54 27,36 18,36 "/>
<polygon points="27,54 36,54 45,36 36,36 "/>
<polygon points="0,18 0,36 9,18 "/>
<polygon points="45,36 54,36 63,18 54,18 "/>
<polygon points="9,36 18,36 27,18 18,18 "/>
<polygon points="27,36 36,36 45,18 36,18 "/>
<polygon points="63,36 72,36 72,18 "/>
<polygon points="0,0 0,18 9,0 "/>
<polygon points="54,0 45,18 54,18 63,0 "/>
<polygon points="18,0 9,18 18,18 27,0 "/>
<polygon points="36,0 27,18 36,18 45,0 "/>
<polygon points="72,0 63,18 72,18 "/>
</svg>
