<?xml version="1.0" encoding="utf-8"?>
<!-- Generator: Adobe Illustrator 21.1.0, SVG Export Plug-In . SVG Version: 6.00 Build 0)  -->
<svg version="1.1" id="Calque_1" xmlns="http://www.w3.org/2000/svg" xmlns:xlink="http://www.w3.org/1999/xlink" x="0px" y="0px"
	 width="72px" height="72px" viewBox="0 0 72 72" enable-background="new 0 0 72 72" xml:space="preserve">
<g>
	<path d="M41.5,41.5C33.6,49.3,28.8,60.1,28.8,72H43v0c0-8,3.3-15.2,8.5-20.4c5.2-5.2,12.5-8.4,20.5-8.4V36v-7.2
		C60,28.8,49.3,33.6,41.5,41.5L41.5,41.5z"/>
	<path d="M7,72h7.4c0-15.9,6.4-30.3,16.9-40.7l0,0C41.7,20.8,56,14.4,72,14.4V0C52,0,34.1,8.1,21.1,21.1l0,0l0,0c0,0,0,0,0,0l0,0
		C8.1,34.1,0,52.1,0,72h7.2H7"/>
</g>
</svg>
