<?xml version="1.0" encoding="utf-8"?>
<!-- Generator: Adobe Illustrator 21.1.0, SVG Export Plug-In . SVG Version: 6.00 Build 0)  -->
<svg version="1.1" id="Calque_1" xmlns="http://www.w3.org/2000/svg" xmlns:xlink="http://www.w3.org/1999/xlink" x="0px" y="0px"
	 width="72px" height="72px" viewBox="0 0 72 72" enable-background="new 0 0 72 72" xml:space="preserve">
<polygon points="72.1,0 64.8,0 64.8,64.8 57.6,64.8 57.6,7.2 57.6,0 36,0 36,7.2 36,64.8 28.8,64.8 28.8,7.2 28.8,0 7.1,0 7.1,7.2 
	7.1,64.8 -0.1,64.8 -0.1,72 7.1,72 14.3,72 14.3,64.8 14.3,7.2 21.5,7.2 21.5,64.8 21.5,72 28.8,72 36,72 43.2,72 43.2,64.8 
	43.2,7.2 50.4,7.2 50.4,64.8 50.4,72 57.6,72 64.8,72 72,72 72,64.8 "/>
</svg>
