<?xml version="1.0" encoding="utf-8"?>
<!-- Generator: Adobe Illustrator 21.1.0, SVG Export Plug-In . SVG Version: 6.00 Build 0)  -->
<svg version="1.1" id="Calque_1" xmlns="http://www.w3.org/2000/svg" xmlns:xlink="http://www.w3.org/1999/xlink" x="0px" y="0px"
	 width="72px" height="72px" viewBox="0 0 72 72" enable-background="new 0 0 72 72" xml:space="preserve">
<g>
	<polygon points="2.3,36 6.8,36 4.5,72 	"/>
	<polygon points="29.3,36 33.7,36 31.5,72 	"/>
	<polygon points="20.3,36 24.8,36 22.5,72 	"/>
	<polygon points="47.2,36 51.7,36 49.5,72 	"/>
	<polygon points="65.2,36 69.7,36 67.5,72 	"/>
	<polygon points="11.3,36 15.8,36 13.5,72 	"/>
	<polygon points="38.3,36 42.7,36 40.5,72 	"/>
	<polygon points="56.2,36 60.7,36 58.5,72 	"/>
	<polygon points="63,0 65.2,36 69.7,36 72,0 	"/>
	<polygon points="36,0 38.2,36 42.7,36 45,0 	"/>
	<polygon points="54,0 56.2,36 60.7,36 63,0 	"/>
	<polygon points="27,0 29.2,36 33.7,36 36,0 	"/>
	<polygon points="9,0 11.2,36 15.7,36 18,0 	"/>
	<polygon points="0,0 2.2,36 6.7,36 9,0 	"/>
	<polygon points="45,0 47.2,36 51.7,36 54,0 	"/>
	<polygon points="18,0 20.2,36 24.7,36 27,0 	"/>
</g>
</svg>
