<?xml version="1.0" encoding="utf-8"?>
<!-- Generator: Adobe Illustrator 21.1.0, SVG Export Plug-In . SVG Version: 6.00 Build 0)  -->
<svg version="1.1" id="Calque_1" xmlns="http://www.w3.org/2000/svg" xmlns:xlink="http://www.w3.org/1999/xlink" x="0px" y="0px"
	 width="72px" height="72px" viewBox="0 0 72 72" enable-background="new 0 0 72 72" xml:space="preserve">
<g>
	<path d="M20.3,51.5C15.2,46.3,8,43,0.1,43l0,7.2c0,0,0,0,0,0l0,7.2c4,0,7.6,1.6,10.1,4.3c2.6,2.6,4.2,6.2,4.2,10.2l7.2,0l7.2,0
		C28.7,63.9,25.5,56.7,20.3,51.5L20.3,51.5z"/>
	<path d="M40.7,31.1C30.4,20.7,16,14,0.1,14H0v14.6c11.9,0,22.8,4.9,30.5,12.7C38.3,49.2,43.1,60,43,72l14.4,0
		C57.5,56.1,51.1,41.6,40.7,31.1z"/>
</g>
</svg>
