<?xml version="1.0" encoding="utf-8"?>
<!-- Generator: Adobe Illustrator 21.1.0, SVG Export Plug-In . SVG Version: 6.00 Build 0)  -->
<svg version="1.1" id="Calque_1" xmlns="http://www.w3.org/2000/svg" xmlns:xlink="http://www.w3.org/1999/xlink" x="0px" y="0px"
	 width="72px" height="72px" viewBox="0 0 72 72" enable-background="new 0 0 72 72" xml:space="preserve">
<g>
	<path d="M36,36L36,36L36,36L36,36z M36,36 M36,36 M36,36L36,36c0,0-0.1,0-0.1,0c-2.4,0-4.7,0.3-6.9,0.7c-2.3,0.5-4.6,1.2-6.7,2.1
		c-2.2,0.9-4.3,2-6.2,3.3c-1.9,1.3-3.7,2.8-5.4,4.4c0,0,0,0,0,0c0,0-0.1,0.1-0.1,0.1c0,0,0,0-0.1,0.1c0,0,0,0,0,0c0,0,0,0-0.1,0.1
		c0,0,0,0,0,0c0,0,0,0-0.1,0.1l0,0c0,0,0,0-0.1,0.1c0,0,0,0,0,0c0,0,0,0-0.1,0.1c0,0,0,0,0,0c-0.1,0.1-0.1,0.1-0.1,0.2c0,0,0,0,0,0
		c0,0-0.1,0.1-0.1,0.1c0,0,0,0,0,0c-0.7,0.7-1.4,1.5-2,2.3v0c0,0.1-0.1,0.1-0.1,0.2c0,0,0,0,0,0c0,0,0,0,0,0c0,0,0,0,0,0.1
		c0,0,0,0,0,0c-1.3,1.7-2.5,3.4-3.5,5.3c-0.6,1.2-1.2,2.5-1.7,3.8c0,0,0,0,0,0c0,0,0,0,0,0c-0.8,1.9-1.3,4-1.7,6
		c-0.4,2.2-0.7,4.5-0.7,6.9v0c0,0,0,0.1,0,0.1l7,0l0,0c0-0.2,0-0.5,0-0.7v0c0-2.4,0.2-4.7,0.7-7c0.5-2.3,1.1-4.6,2-6.8
		c0.9-2.2,2-4.3,3.3-6.2c1.3-2,2.8-3.8,4.5-5.5c1.6-1.7,3.5-3.2,5.4-4.5c1.9-1.3,4-2.4,6.2-3.3C31.4,37.2,33.6,36.5,36,36"/>
	<path d="M64.9-0.1c0,0.2,0,0.5,0,0.7v0c0,2.4-0.2,4.7-0.7,7c-0.5,2.3-1.1,4.6-2,6.8c-0.9,2.2-2,4.3-3.3,6.2c-1.3,2-2.8,3.8-4.5,5.5
		c-1.6,1.7-3.5,3.2-5.4,4.5c-1.9,1.3-4,2.4-6.2,3.3c-2.1,0.9-4.4,1.6-6.8,2.1h0c0,0,0,0,0,0c0,0,0.1,0,0.1,0c0,0,0.1,0,0.1,0
		c0,0,0,0,0,0c2.3,0,4.6-0.3,6.8-0.7c2.3-0.5,4.6-1.2,6.7-2.1c2.2-0.9,4.3-2,6.2-3.3c1.8-1.2,3.5-2.6,5.1-4.1v0c0,0,0,0,0.1-0.1
		c0,0,0,0,0,0c0,0,0,0,0,0c0,0,0,0,0,0c0,0,0,0,0,0c0.1-0.1,0.1-0.1,0.2-0.2c0,0,0,0,0.1-0.1c0,0,0,0,0,0l0,0c0,0,0,0,0,0
		c0,0,0,0,0,0c0,0,0,0,0,0c0,0,0,0,0.1-0.1c0,0,0,0,0,0l0,0c0,0,0,0,0,0c0,0,0,0,0,0c0,0,0,0,0,0c0,0,0,0,0.1-0.1c0,0,0,0,0,0
		c0,0,0,0,0,0c0,0,0,0,0,0c0,0,0,0,0-0.1c0,0,0,0,0,0c0,0,0,0,0.1-0.1l0,0c0,0,0,0,0.1-0.1c0,0,0,0,0,0l0.1-0.1c0,0,0,0,0,0
		c0,0,0-0.1,0.1-0.1c0,0,0,0,0,0c0,0,0,0,0.1-0.1l0,0c0.6-0.6,1.2-1.3,1.7-2c0,0,0,0,0,0c0,0,0,0,0-0.1c0,0,0,0,0,0c0,0,0,0,0,0
		c1.3-1.7,2.4-3.4,3.4-5.3c0.5-1,1-1.9,1.4-2.9c0-0.1,0-0.1,0.1-0.2c0.9-2.2,1.6-4.4,2-6.8c0.4-2.2,0.7-4.5,0.7-6.9c0,0,0,0,0,0
		c0,0,0-0.1,0-0.1L64.9-0.1z M36.7,35.7c-0.2,0.1-0.5,0.2-0.7,0.3l0,0C36.2,35.9,36.5,35.8,36.7,35.7 M36,36L36,36L36,36L36,36z
		 M36,36L36,36L36,36L36,36"/>
</g>
</svg>
