<?xml version="1.0" encoding="utf-8"?>
<!-- Generator: Adobe Illustrator 21.1.0, SVG Export Plug-In . SVG Version: 6.00 Build 0)  -->
<svg version="1.1" id="Calque_1" xmlns="http://www.w3.org/2000/svg" xmlns:xlink="http://www.w3.org/1999/xlink" x="0px" y="0px"
	 width="72px" height="72px" viewBox="0 0 72 72" enable-background="new 0 0 72 72" xml:space="preserve">
<g>
	<path d="M29.3-0.5l-7.2,0c0,6-2.4,11.4-6.3,15.3l5.1,5.1C26.1,14.7,29.3,7.5,29.3-0.5z"/>
	<path d="M65.3-0.5c0,17.9-7.2,34.1-18.9,45.8l-5.1-5.1C51.6,29.8,58,15.4,58-0.5v0l-7.1,0c0,13.9-5.6,26.5-14.7,35.7l-5.1-5.1
		c7.8-7.8,12.6-18.6,12.6-30.6l-7.2,0c0,9.9-4,18.9-10.5,25.5L15.8,14.8l-5.1-5.1c2.6-2.6,4.2-6.2,4.2-10.2l-7.2,0v0
		c0,2-0.8,3.8-2.1,5.1L0.5-0.5l0,66.7c0,0,0,0,0,0l0,5.3c39.8,0,72-32.3,71.9-72.1v0L65.3-0.5z"/>
</g>
</svg>
