<?xml version="1.0" encoding="utf-8"?>
<!-- Generator: Adobe Illustrator 21.1.0, SVG Export Plug-In . SVG Version: 6.00 Build 0)  -->
<svg version="1.1" id="Calque_1" xmlns="http://www.w3.org/2000/svg" xmlns:xlink="http://www.w3.org/1999/xlink" x="0px" y="0px"
	 width="72px" height="72px" viewBox="0 0 72 72" enable-background="new 0 0 72 72" xml:space="preserve">
<g>
	<path d="M65,0.7L65,0.7c0-0.3,0-0.5,0-0.7h-6.9c0,0.4,0.1,0.7,0.1,1.1c0,0.5,0,1.1,0,1.6v0c0,2.4-0.2,4.7-0.7,7
		c-0.2,1-0.5,2-0.8,3.1c0,0,0,0,0,0c0,0,0,0,0,0.1c0,0,0,0,0,0c0,0,0,0.1,0,0.1c0,0,0,0,0,0c0,0,0,0,0,0c0,0,0,0,0,0.1c0,0,0,0,0,0
		c0,0,0,0.1,0,0.1c0,0,0,0,0,0c0,0,0,0.1,0,0.1c0,0,0,0,0,0c0,0,0,0,0,0.1c0,0,0,0,0,0c0,0,0,0.1,0,0.1v0c0,0,0,0.1,0,0.1
		c0,0,0,0,0,0c0,0,0,0.1,0,0.1c0,0,0,0,0,0c0,0,0,0.1,0,0.1c0,0,0,0,0,0c0,0,0,0.1,0,0.1c0,0,0,0,0,0c0,0,0,0.1,0,0.1c0,0,0,0,0,0
		c0,0,0,0.1,0,0.1c0,0,0,0,0,0c0,0,0,0.1,0,0.1c0,0,0,0,0,0c0,0,0,0,0,0.1c0,0,0,0,0,0c0,0,0,0,0,0.1c0,0,0,0,0,0c0,0,0,0.1,0,0.1
		c0,0,0,0,0,0c0,0,0,0,0,0c0,0,0,0,0,0c0,0,0,0,0,0c0,0,0,0,0,0.1c0,0,0,0,0,0c0,0,0,0.1,0,0.1c0,0,0,0,0,0c0,0,0,0,0,0.1
		c0,0,0,0,0,0c0,0.1-0.1,0.1-0.1,0.2c0,0,0,0,0,0c0,0,0,0.1,0,0.1c0,0,0,0,0,0c0,0.1-0.1,0.1-0.1,0.2l0,0c0,0,0,0,0,0.1c0,0,0,0,0,0
		c0,0.1-0.1,0.1-0.1,0.2l0,0c0,0,0,0,0,0.1c0,0,0,0,0,0c0,0,0,0,0,0.1c0,0,0,0,0,0c0,0,0,0.1,0,0.1c0,0,0,0,0,0c0,0,0,0,0,0
		c0,0,0,0,0,0c0,0,0,0,0,0c0,0,0,0.1,0,0.1c-3.4,8.3-10,15.3-18.8,19.2c-0.2,0.1-0.5,0.2-0.7,0.3c2.4-0.5,4.6-1.2,6.8-2.1
		c2.2-0.9,4.3-2,6.2-3.3c2-1.3,3.8-2.8,5.4-4.5c1.7-1.7,3.2-3.5,4.5-5.5c1.3-2,2.4-4,3.3-6.2c0.9-2.2,1.6-4.4,2.1-6.8
		C64.7,5.4,65,3.1,65,0.7 M35.9,36L35.9,36C35.9,36,35.9,36,35.9,36L35.9,36L35.9,36z"/>
	<path d="M35.9,36L35.9,36L35.9,36L35.9,36z M35.9,36 M35.9,36 M35.9,36L35.9,36c-2.4,0.5-4.6,1.2-6.8,2.1c-2.2,0.9-4.3,2-6.2,3.3
		c-2,1.3-3.8,2.8-5.4,4.5c-1.7,1.7-3.2,3.5-4.5,5.5c-1.3,2-2.4,4-3.3,6.2C8.7,59.7,8,62,7.6,64.3c-0.5,2.3-0.7,4.6-0.7,7v0
		c0,0.2,0,0.5,0,0.7h6.9c0-0.4-0.1-0.7-0.1-1.1c0-0.5,0-1.1,0-1.6c0-2.4,0.2-4.7,0.7-7c0.2-1.2,0.6-2.5,0.9-3.7l0,0
		c0.3-1,0.6-1.9,1-2.8c0,0,0,0,0,0c0,0,0,0,0-0.1c0,0,0,0,0,0c0,0,0,0,0,0c0,0,0-0.1,0-0.1c0.1-0.1,0.1-0.2,0.2-0.4c0,0,0,0,0,0
		c0,0,0,0,0,0c0,0,0,0,0-0.1c0,0,0,0,0,0C20.2,46.7,26.9,39.7,35.9,36"/>
	<path d="M35.9,36L35.9,36L35.9,36L35.9,36z M35.9,36L35.9,36c-2,1.3-3.8,2.8-5.5,4.5c-1.7,1.7-3.2,3.5-4.5,5.5
		c-1.3,2-2.4,4-3.3,6.2c-0.9,2.2-1.6,4.4-2.1,6.8c-0.5,2.3-0.7,4.7-0.7,7v0c0,2,0.2,4,0.5,6h1.6h5c-0.4-1.2-0.7-2.3-0.9-3.5
		c-0.5-2.3-0.7-4.7-0.7-7c0-2.4,0.2-4.7,0.7-7c0.5-2.3,1.1-4.6,2-6.7c0.9-2.2,2-4.2,3.3-6.2C32.7,39.5,34.2,37.7,35.9,36"/>
	<path d="M40.9,72c-0.6-0.7-1.1-1.5-1.6-2.2c-1.3-2-2.4-4.1-3.3-6.2c-0.9-2.2-1.6-4.4-2.1-6.7c-0.5-2.3-0.7-4.6-0.7-7v0
		c0-2.3,0.2-4.6,0.7-7c0.5-2.3,1.1-4.6,2.1-6.8h0c-1.3,2-2.5,4.1-3.3,6.2c-0.9,2.2-1.6,4.5-2.1,6.8c-0.5,2.3-0.7,4.6-0.7,7v0
		c0,2.4,0.2,4.7,0.7,7c0.5,2.3,1.1,4.6,2.1,6.8c0.3,0.8,0.7,1.5,1,2.2h4.6H40.9z M35.9,36L35.9,36L35.9,36L35.9,36L35.9,36z"/>
	<path d="M72,72L72,72c0,0-0.1,0-0.1,0c0,0,0,0,0,0c-4.7,0-9.2-0.9-13.3-2.6c-0.1-0.1-0.3-0.1-0.4-0.2c-2.2-0.9-4.3-2-6.2-3.3
		c-0.9-0.6-1.7-1.2-2.5-1.8h0c0,0,0,0-0.1,0c0,0,0,0,0,0c0,0,0,0,0,0c0,0,0,0-0.1,0c0,0,0,0,0,0c0,0,0,0-0.1-0.1c0,0,0,0,0,0
		c0,0,0,0-0.1-0.1c0,0,0,0,0,0c-0.2-0.1-0.3-0.3-0.5-0.4l0,0c-0.1,0-0.1-0.1-0.2-0.1h0c0,0-0.1,0-0.1-0.1c0,0,0,0,0,0
		c0,0,0,0-0.1-0.1c0,0,0,0,0,0c0,0-0.1,0-0.1-0.1c0,0,0,0,0,0c0,0,0,0,0,0c0,0,0,0,0,0c0,0,0,0,0,0c-0.1,0-0.1-0.1-0.2-0.1
		c0,0,0,0,0,0c-0.5-0.4-0.9-0.9-1.4-1.3c-0.4-0.4-0.8-0.8-1.1-1.2c0,0,0,0,0,0c0,0,0,0,0,0c-5.8-6.4-9.4-14.8-9.4-24.1
		c0,0,0-0.1,0-0.1c-0.5,2.4-0.7,4.7-0.7,7.1c0,2.4,0.2,4.7,0.7,7c0.5,2.3,1.2,4.6,2.1,6.7c0.9,2.2,2,4.3,3.3,6.2
		c1.3,2,2.8,3.8,4.5,5.5c1.3,1.3,2.6,2.4,4.1,3.5h1.6h6.7H65H72z M35.9,36L35.9,36L35.9,36z"/>
	<path d="M52,6c0-2-0.2-4-0.5-6h-1.6h-5c0.4,1.2,0.7,2.3,0.9,3.5c0.5,2.3,0.7,4.7,0.7,7c0,2.4-0.2,4.7-0.7,7c-0.5,2.3-1.1,4.6-2,6.7
		c-0.9,2.2-2,4.2-3.3,6.2c-1.3,1.9-2.8,3.8-4.5,5.5h0c2-1.3,3.8-2.8,5.5-4.5c1.7-1.7,3.2-3.5,4.5-5.5c1.3-2,2.4-4,3.3-6.2
		c0.9-2.2,1.6-4.4,2.1-6.8C51.7,10.8,52,8.4,52,6L52,6 M35.9,36L35.9,36L35.9,36L35.9,36"/>
	<path d="M42,16L42,16c0-2.4-0.2-4.8-0.7-7.1c-0.5-2.3-1.1-4.6-2.1-6.8c-0.3-0.8-0.7-1.5-1-2.2h-4.6H31c0.6,0.7,1.1,1.5,1.6,2.2
		c1.3,2,2.4,4,3.3,6.2c0.9,2.2,1.6,4.4,2.1,6.7c0.5,2.3,0.7,4.6,0.7,7v0c0,2.3-0.2,4.6-0.7,7c-0.5,2.3-1.1,4.6-2.1,6.8
		c1.3-2,2.5-4.1,3.3-6.2c0.9-2.2,1.6-4.5,2.1-6.8C41.8,20.7,42,18.4,42,16 M35.9,36L35.9,36L35.9,36L35.9,36z"/>
	<path d="M36.6,28.9c0-2.4-0.2-4.7-0.7-7c-0.5-2.3-1.2-4.6-2.1-6.7c-0.9-2.2-2-4.3-3.3-6.2c-1.3-2-2.8-3.8-4.5-5.5
		c-1.3-1.3-2.6-2.4-4.1-3.5h-1.6h-6.7H6.9H0c4.7,0,9.3,1,13.4,2.6c0,0,0,0,0.1,0c0,0,0,0,0,0c0.1,0,0.1,0,0.2,0.1
		c2.2,0.9,4.3,2,6.2,3.3c0.7,0.4,1.3,0.9,1.9,1.4c0,0,0,0,0.1,0c0,0,0,0,0,0c1.1,0.8,2.1,1.7,3.1,2.7c0,0,0,0,0,0c0,0,0,0,0.1,0.1
		c0,0,0,0,0,0c0,0,0.1,0.1,0.1,0.1c0,0,0,0,0,0c0,0,0,0,0.1,0.1c0,0,0,0,0,0c0,0,0,0,0.1,0.1c0,0,0.1,0.1,0.1,0.1c0,0,0,0,0,0
		c6.5,6.5,10.5,15.4,10.5,25.3c0,0,0,0,0,0.1c0,0,0,0,0,0.1C36.4,33.6,36.6,31.3,36.6,28.9 M35.9,36L35.9,36L35.9,36L35.9,36
		L35.9,36L35.9,36z"/>
</g>
</svg>
