<?xml version="1.0" encoding="utf-8"?>
<!-- Generator: Adobe Illustrator 21.1.0, SVG Export Plug-In . SVG Version: 6.00 Build 0)  -->
<svg version="1.1" id="Calque_1" xmlns="http://www.w3.org/2000/svg" xmlns:xlink="http://www.w3.org/1999/xlink" x="0px" y="0px"
	 width="72px" height="72px" viewBox="0 0 72 72" enable-background="new 0 0 72 72" xml:space="preserve">
<g>
	<polygon points="36,69.7 36,65.2 72,67.4 	"/>
	<polygon points="36,42.7 36,38.2 72,40.5 	"/>
	<polygon points="36,51.7 36,47.2 72,49.5 	"/>
	<polygon points="36,24.7 36,20.2 72,22.5 	"/>
	<polygon points="36,6.7 36,2.2 72,4.5 	"/>
	<polygon points="36,60.7 36,56.2 72,58.5 	"/>
	<polygon points="36,33.7 36,29.2 72,31.5 	"/>
	<polygon points="36,15.7 36,11.2 72,13.5 	"/>
	<polygon points="0,9 36,6.7 36,2.2 0,0 	"/>
	<polygon points="0,36 36,33.7 36,29.2 0,27 	"/>
	<polygon points="0,18 36,15.7 36,11.2 0,9 	"/>
	<polygon points="0,45 36,42.7 36,38.2 0,36 	"/>
	<polygon points="0,63 36,60.7 36,56.2 0,54 	"/>
	<polygon points="0,72 36,69.7 36,65.2 0,63 	"/>
	<polygon points="0,27 36,24.7 36,20.2 0,18 	"/>
	<polygon points="0,54 36,51.7 36,47.2 0,45 	"/>
</g>
</svg>
