<?xml version="1.0" encoding="utf-8"?>
<!-- Generator: Adobe Illustrator 21.1.0, SVG Export Plug-In . SVG Version: 6.00 Build 0)  -->
<svg version="1.1" id="Calque_1" xmlns="http://www.w3.org/2000/svg" xmlns:xlink="http://www.w3.org/1999/xlink" x="0px" y="0px"
	 width="72px" height="72px" viewBox="0 0 72 72" enable-background="new 0 0 72 72" xml:space="preserve">
<g>
	<path d="M52.1,20.5c5.2,5.2,12.4,8.5,20.3,8.5l0-7.2c0,0,0,0,0,0l0-7.2c-4,0-7.6-1.6-10.1-4.3c-2.6-2.6-4.2-6.2-4.2-10.2l-7.2,0
		l-7.2,0C43.7,8.1,46.9,15.3,52.1,20.5L52.1,20.5z"/>
	<path d="M31.7,40.9C42.1,51.3,56.4,58,72.3,58H72V43.4c-11,0-22.5-4.9-30.3-12.7C33.9,22.8,29.2,12,29.3,0L14.9,0
		C14.9,15.9,21.3,30.4,31.7,40.9z"/>
</g>
</svg>
