<?xml version="1.0" encoding="utf-8"?>
<!-- Generator: Adobe Illustrator 21.1.0, SVG Export Plug-In . SVG Version: 6.00 Build 0)  -->
<svg version="1.1" id="Calque_1" xmlns="http://www.w3.org/2000/svg" xmlns:xlink="http://www.w3.org/1999/xlink" x="0px" y="0px"
	 width="72px" height="72px" viewBox="0 0 72 72" enable-background="new 0 0 72 72" xml:space="preserve">
<g>
	<g>
		<path d="M49.1,3.8c0,0,0.1,0,0.1,0C49.2,3.7,49.1,3.7,49.1,3.8"/>
		<path d="M3.7,49.2c0,0,0-0.1,0-0.1C3.7,49.1,3.7,49.2,3.7,49.2"/>
		<path d="M45.9,4.9C46,4.9,46,4.9,45.9,4.9C46,4.9,46,4.9,45.9,4.9"/>
	</g>
	<path d="M42.9,6.2L42.9,6.2L42.9,6.2z"/>
	<path d="M2.7,52.5l0-0.1L2.7,52.5z"/>
	<g>
		<path d="M4.9,46C4.9,46,4.9,46,4.9,46C4.9,46,4.9,46,4.9,46"/>
		<g>
			<g>
				<path d="M24.6,24.6c11-14.4,27-23.7,44.9-24.5c-1.2,0-2.3,0.1-3.5,0.2c0,0-0.1,0-0.1,0c-1.1,0.1-2.2,0.2-3.4,0.4
					c0,0-0.1,0-0.1,0c-1.1,0.1-2.2,0.3-3.3,0.5c-0.1,0-0.1,0-0.2,0c-1.1,0.2-2.1,0.4-3.2,0.7c-0.1,0-0.1,0-0.2,0
					c-1.1,0.2-2.1,0.5-3.1,0.8c-0.1,0-0.1,0-0.2,0c-1,0.3-2.1,0.6-3.1,1c0,0-0.1,0-0.1,0C48,4.1,47,4.5,46,4.9c0,0-0.1,0-0.1,0
					c-1,0.4-2,0.8-3.1,1.3l0,0c-17.4,7.7-31.1,22-38,39.8c0,0,0,0,0,0.1c-0.4,1-0.8,2-1.1,3.1c0,0,0,0.1,0,0.1c-0.3,1-0.7,2.1-1,3.1
					l0,0.2c-0.3,1-0.6,2.1-0.8,3.2l0,0.2c-0.2,1.1-0.5,2.1-0.7,3.2c0,0.1,0,0.1,0,0.2c-0.2,1.1-0.4,2.2-0.5,3.3c0,0,0,0.1,0,0.1
					c-0.1,1.1-0.3,2.2-0.4,3.4c0,0,0,0,0,0.1c-0.1,1.1-0.2,2.3-0.2,3.5C0.9,51.6,10.2,35.6,24.6,24.6"/>
			</g>
		</g>
		<g>
			<g>
				<path d="M13.3,46c1-3,2.2-5.9,3.5-8.6C6.3,46.8,0,58.8,0,72C0,62.3,4.9,53.3,13.3,46"/>
			</g>
		</g>
		<path d="M10.2,58.2c0.3-1.9,0.7-3.7,1.2-5.5C4.2,58.2,0,64.9,0,72C0,66.9,3.7,62.2,10.2,58.2"/>
		<path d="M9.1,67.6c0.1-1.5,0.2-3,0.4-4.5C3.5,65.7,0,68.7,0,72C0,70.4,3.3,68.9,9.1,67.6"/>
		<g>
			<g>
				<path d="M37.4,16.8c-4.6,2.2-8.9,4.8-12.8,7.8c-3,3.9-5.6,8.2-7.8,12.8c3.6-3.2,7.6-6.1,12-8.6C31.3,24.4,34.2,20.3,37.4,16.8"
					/>
			</g>
		</g>
		<g>
			<g>
				<path d="M24.3,38.3c-4.1,2.3-7.8,4.9-11,7.7c-0.7,2.2-1.4,4.4-1.9,6.6c2.9-2.3,6.4-4.4,10.2-6.3C22.3,43.6,23.2,40.9,24.3,38.3"
					/>
			</g>
		</g>
		<g>
			<g>
				<path d="M19.8,53.4c-3.7,1.4-6.9,3-9.7,4.8c-0.3,1.6-0.5,3.3-0.7,4.9c2.6-1.1,5.7-2.2,9.3-3.2C19.1,57.7,19.4,55.5,19.8,53.4"/>
			</g>
		</g>
		<g>
			<g>
				<path d="M18.2,66c-3.5,0.5-6.5,1-9.1,1.6C9.1,69.1,9,70.5,9,72c2.5,0,5.6,0,9,0C18,70,18.1,68,18.2,66"/>
			</g>
		</g>
		<path d="M37.4,16.8c2.8-1.3,5.6-2.5,8.6-3.5C53.3,4.9,62.3,0,72,0C58.8,0,46.8,6.3,37.4,16.8"/>
		<g>
			<g>
				<path d="M38.3,24.3c-3.3,1.3-6.5,2.8-9.5,4.5c-1.7,3-3.2,6.2-4.5,9.5c3-1.7,6.2-3.1,9.6-4.5C35.2,30.5,36.7,27.3,38.3,24.3"/>
			</g>
		</g>
		<g>
			<g>
				<path d="M31,42.4c-3.4,1.2-6.5,2.5-9.4,3.9c-0.7,2.3-1.2,4.7-1.7,7.1c2.8-1.1,5.9-2.2,9.3-3.1C29.6,47.6,30.3,45,31,42.4"/>
			</g>
		</g>
		<g>
			<g>
				<path d="M27.9,57.8c-3.3,0.6-6.3,1.3-9.1,2.1c-0.3,2-0.4,4.1-0.6,6.1c2.8-0.4,5.8-0.7,9-1.1C27.4,62.5,27.6,60.1,27.9,57.8"/>
			</g>
		</g>
		<g>
			<g>
				<path d="M46.3,21.6c1.9-3.9,4-7.3,6.3-10.2c-2.3,0.6-4.5,1.2-6.6,1.9c-2.8,3.2-5.4,6.9-7.7,11C40.9,23.3,43.6,22.3,46.3,21.6"/>
			</g>
		</g>
		<g>
			<g>
				<path d="M42.4,31c-3,0.8-5.8,1.8-8.6,2.9c-1.1,2.7-2,5.6-2.9,8.6c2.8-1,5.8-1.8,8.8-2.6C40.6,36.7,41.4,33.8,42.4,31"/>
			</g>
		</g>
		<g>
			<g>
				<path d="M38,48.2c-3.1,0.6-6.1,1.3-8.9,2.1c-0.5,2.4-0.9,4.9-1.2,7.5c2.8-0.5,5.8-1,9-1.5C37.2,53.5,37.6,50.8,38,48.2"/>
			</g>
		</g>
		<g>
			<g>
				<path d="M36.2,64.2c-3.2,0.2-6.2,0.5-9,0.8c-0.1,2.3-0.2,4.7-0.2,7c2.8,0,5.8,0,9,0C36,69.4,36.1,66.8,36.2,64.2"/>
			</g>
		</g>
		<path d="M52.6,11.3c1.8-0.4,3.7-0.8,5.5-1.2C62.2,3.7,66.9,0,72,0C64.9,0,58.2,4.2,52.6,11.3"/>
		<g>
			<g>
				<path d="M50.3,29.1c0.9-3.3,2-6.4,3.1-9.2c-2.4,0.5-4.8,1.1-7.1,1.7c-1.4,2.9-2.7,6.1-3.9,9.4C45,30.3,47.6,29.6,50.3,29.1"/>
			</g>
		</g>
		<g>
			<g>
				<path d="M48.2,38c-2.9,0.5-5.7,1.1-8.4,1.8c-0.7,2.7-1.3,5.5-1.8,8.4c2.8-0.6,5.7-1.1,8.7-1.5C47.1,43.7,47.6,40.8,48.2,38"/>
			</g>
		</g>
		<g>
			<g>
				<path d="M45.7,55.2c-3.1,0.3-6,0.6-8.9,1c-0.3,2.6-0.5,5.2-0.7,7.9c2.9-0.2,5.9-0.4,9-0.5C45.3,60.8,45.5,58,45.7,55.2"/>
			</g>
		</g>
		<g>
			<g>
				<path d="M59.9,18.8c1-3.5,2-6.6,3.2-9.3c-1.7,0.2-3.3,0.4-4.9,0.7c-1.7,2.7-3.3,6-4.8,9.7C55.5,19.4,57.7,19.1,59.9,18.8"/>
			</g>
		</g>
		<g>
			<g>
				<path d="M56.3,36.9c0.4-3.2,0.9-6.2,1.5-9c-2.5,0.3-5,0.7-7.5,1.2c-0.8,2.8-1.5,5.8-2.1,8.9C50.8,37.6,53.5,37.2,56.3,36.9"/>
			</g>
		</g>
		<g>
			<g>
				<path d="M55.2,45.7c-2.9,0.3-5.8,0.6-8.5,1c-0.4,2.8-0.7,5.6-1,8.5c2.8-0.3,5.8-0.5,8.8-0.7C54.7,51.5,55,48.6,55.2,45.7"/>
			</g>
		</g>
		<g>
			<g>
				<path d="M54.1,63.3c-3.1,0.1-6.1,0.2-8.9,0.4C45.1,66.4,45,69.2,45,72h9C54,69,54,66.1,54.1,63.3"/>
			</g>
		</g>
		<path d="M63.1,9.5c1.5-0.2,3-0.3,4.5-0.4C68.9,3.3,70.4,0,72,0C68.7,0,65.7,3.5,63.1,9.5"/>
		<g>
			<g>
				<path d="M65,27.2c0.3-3.2,0.7-6.3,1.1-9c-2.1,0.1-4.1,0.3-6.1,0.6c-0.8,2.8-1.5,5.8-2.1,9.1C60.1,27.6,62.5,27.4,65,27.2"/>
			</g>
		</g>
		<g>
			<g>
				<path d="M63.6,45.2c0.2-3.1,0.3-6.1,0.5-9c-2.7,0.1-5.3,0.4-7.9,0.7c-0.4,2.8-0.7,5.8-1,8.9C58,45.5,60.8,45.3,63.6,45.2"/>
			</g>
		</g>
		<g>
			<g>
				<path d="M63.3,54.1c-3,0.1-5.9,0.2-8.7,0.4c-0.2,2.8-0.3,5.8-0.4,8.7c2.9-0.1,5.9-0.2,8.9-0.2C63.1,60,63.2,57,63.3,54.1"/>
			</g>
		</g>
		<path d="M72,18V9c-1.5,0-2.9,0.1-4.4,0.1c-0.6,2.6-1.1,5.6-1.6,9.1C68,18.1,70,18,72,18"/>
		<g>
			<g>
				<path d="M72,36v-9c-2.4,0-4.7,0.1-7,0.2c-0.3,2.8-0.5,5.8-0.8,9C66.8,36.1,69.4,36,72,36"/>
			</g>
		</g>
		<g>
			<g>
				<path d="M72,54v-9c-2.8,0-5.6,0.1-8.3,0.2c-0.1,2.9-0.3,5.9-0.4,8.9C66.1,54.1,69,54,72,54"/>
			</g>
		</g>
		<g>
			<g>
				<path d="M72,63c-3,0-6,0-8.9,0.1C63,66,63,69,63,72h9V63z"/>
			</g>
		</g>
	</g>
</g>
</svg>
