<?xml version="1.0" encoding="utf-8"?>
<!-- Generator: Adobe Illustrator 21.1.0, SVG Export Plug-In . SVG Version: 6.00 Build 0)  -->
<svg version="1.1" id="Calque_1" xmlns="http://www.w3.org/2000/svg" xmlns:xlink="http://www.w3.org/1999/xlink" x="0px" y="0px"
	 width="72px" height="72px" viewBox="0 0 72 72" enable-background="new 0 0 72 72" xml:space="preserve">
<g>
	<path d="M0,33.7c0.7-0.4,1.5-0.7,2.2-1c2.2-0.9,4.4-1.6,6.8-2c2.3-0.5,4.7-0.7,7-0.7c2.3,0,4.7,0.2,7,0.7c2.3,0.5,4.6,1.1,6.8,2
		c2.1,0.9,4.2,2,6.2,3.3l0,0c-1.7-1.7-3.5-3.2-5.5-4.5c-2-1.3-4.1-2.4-6.2-3.3c-2.2-0.9-4.4-1.6-6.7-2c-2.3-0.5-4.7-0.7-7-0.7
		c-2.4,0-4.7,0.2-7,0.7C2.3,26.4,1.2,26.7,0,27L0,33.7z M0,7c0.2,0,0.5,0,0.7,0c2.4,0,4.7,0.2,7,0.7c2.3,0.5,4.6,1.2,6.8,2.1
		c2.2,0.9,4.3,2,6.2,3.3c2,1.3,3.8,2.8,5.5,4.5c1.7,1.6,3.2,3.5,4.5,5.4c1.3,1.9,2.4,4,3.3,6.2c0.9,2.2,1.6,4.4,2.1,6.8
		c0,0,0,0,0-0.1c0,0,0,0,0-0.1c0-2.4-0.2-4.7-0.7-6.9c-0.5-2.3-1.2-4.6-2-6.7c-0.9-2.2-2-4.3-3.3-6.2c-1.3-1.9-2.8-3.7-4.4-5.4
		c0,0,0,0,0,0c0,0-0.1-0.1-0.1-0.1c0,0,0,0-0.1-0.1c0,0,0,0,0,0c0,0,0,0-0.1-0.1c0,0,0,0,0,0c0,0-0.1-0.1-0.1-0.1c0,0,0,0,0,0
		c0,0,0,0-0.1-0.1c0,0,0,0,0,0c-1-0.9-2-1.8-3.1-2.7c0,0,0,0,0,0c0,0,0,0-0.1,0c-1.6-1.2-3.3-2.3-5-3.2c-1.1-0.6-2.2-1.1-3.3-1.5
		c0,0,0,0,0,0c0,0,0,0-0.1,0c-2.1-0.8-4.3-1.5-6.5-2C4.8,0.2,2.4,0,0,0l0.2,0C0.1,0,0.1,0,0,0L0,7z M0,20.5C2,20.2,4,20,6.1,20
		c2.4,0,4.7,0.2,7,0.7c2.3,0.5,4.6,1.1,6.8,2c2.2,0.9,4.2,2,6.2,3.3c1.9,1.3,3.8,2.8,5.5,4.5c1.6,1.6,3.1,3.5,4.5,5.5v0h0
		c-0.9-2.2-2-4.3-3.3-6.2c-1.3-2-2.8-3.8-4.5-5.5c-1.7-1.7-3.5-3.2-5.4-4.5c-2-1.3-4-2.4-6.2-3.3c-2.2-0.9-4.4-1.6-6.8-2
		c-2.3-0.5-4.7-0.7-7-0.7c-0.9,0-1.8,0-2.7,0.1L0,20.5z M36,36L36,36L36,36z M36,36L36,36L36,36L36,36z M36,36C36,36,36,36,36,36
		L36,36L36,36z M36,36L36,36L36,36z M0,49.9c1.1-1.5,2.3-2.8,3.5-4.1C5.2,44.2,7,42.7,9,41.4c2-1.3,4-2.4,6.2-3.3
		c2.2-0.9,4.4-1.6,6.7-2c2.3-0.5,4.6-0.7,7-0.7c2.3,0,4.7,0.2,7.1,0.7c-1.2-0.5-2.4-0.9-3.6-1.3c-0.1,0-0.1,0-0.2,0
		c0.1,0,0.1,0,0.2,0c-1.1-0.3-2.1-0.6-3.2-0.8c-2.3-0.5-4.7-0.7-7-0.7c-2.4,0-4.7,0.2-7,0.7c-2.3,0.5-4.6,1.1-6.8,2
		c-2.2,0.9-4.3,2-6.2,3.3c-0.8,0.5-1.5,1-2.2,1.6L0,49.9z M36,36 M36,36 M36,36L36,36L36,36z M36,36L36,36L36,36z M36,36L36,36
		L36,36C36,36,36,36,36,36 M35.9,36C35.9,36,35.9,36,35.9,36C35.9,36,35.9,36,35.9,36"/>
	<path d="M72,72v-7c-0.2,0-0.5,0-0.7,0c-2.4,0-4.7-0.2-7-0.7c-2.3-0.5-4.6-1.2-6.8-2.1c-2.2-0.9-4.3-2-6.2-3.3
		c-2-1.3-3.8-2.8-5.5-4.5c-1.7-1.6-3.2-3.5-4.5-5.4c-1.3-1.9-2.4-4-3.3-6.2c-0.9-2.2-1.6-4.4-2.1-6.8c0,0,0,0.1,0,0.1
		c0,2.4,0.2,4.7,0.7,6.9c0.5,2.3,1.2,4.6,2,6.7c0.9,2.2,2,4.3,3.3,6.2c1,1.5,2.1,2.9,3.3,4.2c0,0,0,0,0,0c0,0,0,0,0,0
		c0.4,0.4,0.7,0.8,1.1,1.2c0.5,0.5,0.9,0.9,1.4,1.3c0,0,0,0,0,0c0.1,0,0.1,0.1,0.2,0.1c0,0,0,0,0,0c0,0,0,0,0,0c0,0,0,0,0,0
		c0,0,0,0,0,0c0,0,0.1,0,0.1,0.1c0,0,0,0,0,0c0,0,0,0,0.1,0.1c0,0,0,0,0,0c0,0,0.1,0,0.1,0.1h0c0.1,0,0.1,0.1,0.2,0.1l0,0
		c0.2,0.1,0.3,0.3,0.5,0.4c0,0,0,0,0,0c0,0,0,0,0.1,0.1c0,0,0,0,0,0c0,0,0,0,0.1,0.1c0,0,0,0,0,0c0,0,0,0,0.1,0c0,0,0,0,0,0
		c0,0,0,0,0,0c0,0,0,0,0.1,0h0c1.7,1.4,3.6,2.6,5.6,3.7c1.1,0.6,2.3,1.2,3.5,1.6c2,0.8,4.1,1.4,6.3,1.9c2.2,0.4,4.5,0.7,6.9,0.7
		c0,0,0,0,0,0C71.9,72,72,72,72,72 M72,58.1l0-6.6c-2,0.3-4,0.5-6.1,0.5c-2.4,0-4.7-0.2-7-0.7c-2.3-0.5-4.6-1.1-6.8-2
		c-2.2-0.9-4.2-2-6.2-3.3c-1.9-1.3-3.8-2.8-5.5-4.5C38.8,39.8,37.3,38,36,36c0.9,2.2,2,4.3,3.3,6.2c1.3,2,2.8,3.8,4.5,5.5
		c1.7,1.7,3.5,3.2,5.4,4.5c2,1.3,4,2.4,6.2,3.3c2.2,0.9,4.4,1.6,6.8,2.1c2.3,0.5,4.7,0.7,7,0.7C70.2,58.2,71.1,58.2,72,58.1 M72,45
		L72,45l0-6.7c-0.7,0.4-1.5,0.7-2.2,1c-2.2,0.9-4.4,1.6-6.8,2c-2.3,0.5-4.7,0.7-7,0.7c-2.3,0-4.7-0.2-7-0.7c-2.3-0.5-4.6-1.1-6.8-2
		c-2.1-0.9-4.2-2-6.2-3.3h0c1.7,1.7,3.5,3.2,5.5,4.5c2,1.3,4.1,2.4,6.2,3.3c2.2,0.9,4.4,1.6,6.7,2c2.3,0.5,4.7,0.7,7,0.7
		c2.4,0,4.7-0.2,7-0.7C69.7,45.6,70.8,45.3,72,45 M72,31.1L72,31.1l0-9c-1.1,1.5-2.3,2.8-3.5,4.1c-1.7,1.7-3.5,3.2-5.5,4.5
		c-2,1.3-4,2.4-6.2,3.3c-2.2,0.9-4.4,1.6-6.7,2c-2.3,0.5-4.6,0.7-7,0.7c-2.3,0-4.7-0.2-7.1-0.7l0.2,0.1L36,36c0,0,0,0,0,0
		c2.2,0.9,4.5,1.6,6.8,2.1c2.3,0.5,4.7,0.7,7,0.7c2.4,0,4.7-0.2,7-0.7c2.3-0.5,4.6-1.1,6.7-2c2.2-0.9,4.3-2,6.2-3.3
		C70.5,32.2,71.3,31.6,72,31.1 M36.1,36C36.1,36,36.1,36,36.1,36C36,36,36,36,36.1,36C36.1,36,36.1,36,36.1,36 M36,36L36,36
		C36,36,36,36,36,36L36,36z M36,36L36,36L36,36z M36,36L36,36L36,36z"/>
</g>
</svg>
