<?xml version="1.0" encoding="utf-8"?>
<!-- Generator: Adobe Illustrator 21.1.0, SVG Export Plug-In . SVG Version: 6.00 Build 0)  -->
<svg version="1.1" id="Calque_1" xmlns="http://www.w3.org/2000/svg" xmlns:xlink="http://www.w3.org/1999/xlink" x="0px" y="0px"
	 width="72px" height="72px" viewBox="0 0 72 72" enable-background="new 0 0 72 72" xml:space="preserve">
<g>
	<path d="M40.8,40.6l5.1,5.1C57.7,34,65,17.8,65,0v0h-7.2C57.8,15.9,51.3,30.2,40.8,40.6"/>
	<path d="M0,57.4v7.2c17.9,0,34.2-7.2,45.9-18.9l-5.1-5.1C30.4,51,15.9,57.4,0,57.4"/>
	<path d="M30.6,30.5l5.1,5.1C44.9,26.4,50.5,13.9,50.5,0h-7.2C43.3,11.9,38.5,22.7,30.6,30.5"/>
	<path d="M35.7,35.5l-5.1-5.1C22.8,38.3,12,43.1,0,43.1v7.2C14,50.3,26.6,44.6,35.7,35.5"/>
	<path d="M28.9,0c0,7.9-3.2,15.1-8.5,20.3l5.1,5.1C32.1,18.9,36.1,9.9,36.1,0L28.9,0L28.9,0z"/>
	<path d="M0,28.7v7.2c10,0,19-4,25.5-10.5l-5.1-5.1C15.2,25.5,8,28.7,0,28.7"/>
	<path d="M0,14.4v7.2c6,0,11.4-2.4,15.3-6.3l-5.1-5.1C7.6,12.8,4,14.4,0,14.4"/>
	<path d="M10.2,10.2l5.1,5.1c3.9-3.9,6.3-9.3,6.3-15.2h-7.2C14.4,4,12.8,7.6,10.2,10.2"/>
	<path d="M5.1,5.1C6.4,3.8,7.2,2,7.2,0H0L5.1,5.1z"/>
	<path d="M0,7.2c2,0,3.8-0.8,5.1-2.1L0,0V7.2z"/>
</g>
</svg>
